<?xml version="1.0" encoding="utf-8"?>
<!-- Generator: Adobe Illustrator 22.0.1, SVG Export Plug-In . SVG Version: 6.00 Build 0)  -->
<svg version="1.1" id="Layer_1" xmlns="http://www.w3.org/2000/svg" xmlns:xlink="http://www.w3.org/1999/xlink" x="0px" y="0px"
	 viewBox="0 0 786.7 425.4" style="enable-background:new 0 0 786.7 425.4;" xml:space="preserve">
<style type="text/css">
	.st0{fill:#249AD2;}
	.st1{fill:#FFFFFF;}
	.st2{fill:#2D708E;}
	.st3{fill:#2D45AA;}
	.st4{fill:#2741AA;}
	.st5{fill:#334CB5;}
	.st6{fill:#2B45AD;}
	.st7{fill:#249AD2;stroke:#FFFFFF;stroke-width:2;stroke-miterlimit:10;}
	.st8{fill:#4258B7;}
</style>
<g>
	<path class="st0" d="M502.5,72.3c0-5.6-4.5-10.3-10.3-10.3h-39.7c-5.6,0-10.3,4.5-10.3,10.3v2c0,5.6,4.5,10.3,10.3,10.3h39.7
		c5.6,0,10.3-4.5,10.3-10.3V72.3z"/>
	<path class="st1" d="M492.4,85.1h-39.7c-5.9,0-10.7-4.8-10.7-10.7v-2c0-5.9,4.8-10.7,10.7-10.7h39.7c5.9,0,10.7,4.8,10.7,10.7v2
		C503.1,80.3,498.2,85.1,492.4,85.1z M452.6,62.7c-5.4,0-9.7,4.3-9.7,9.7v2c0,5.4,4.3,9.7,9.7,9.7h39.7c5.4,0,9.7-4.3,9.7-9.7v-2
		c0-5.4-4.3-9.7-9.7-9.7H452.6z"/>
</g>
<g>
	<path class="st2" d="M787.1,229.6L787.1,229.6l-434-154.9c-0.1,0-0.1-0.1-0.1-0.2c0-0.1,0.1-0.1,0.2-0.1l433.9,154.9
		C787.2,229.3,787.2,229.4,787.1,229.6C787.2,229.6,787.1,229.6,787.1,229.6z"/>
</g>
<g>
	<path class="st2" d="M766.1,241L766.1,241L331.7,80.7c-0.1,0-0.1-0.1-0.1-0.2c0-0.1,0.1-0.1,0.2-0.1l434.3,160.4
		C766.2,240.8,766.2,240.9,766.1,241C766.2,240.9,766.1,241,766.1,241z"/>
</g>
<g>
	<path class="st2" d="M744.2,252.8L744.2,252.8L309.7,86.7c-0.1,0-0.1-0.1-0.1-0.2c0-0.1,0.1-0.1,0.2-0.1l434.5,166.2
		c0.1,0,0.1,0.1,0.1,0.2C744.3,252.8,744.3,252.8,744.2,252.8z"/>
</g>
<g>
	<path class="st2" d="M426,424.9C426,424.9,425.9,424.9,426,424.9L15.8,167.1c-0.1,0-0.1-0.1,0-0.2c0-0.1,0.1-0.1,0.2,0l410.1,257.7
		c0.1,0,0.1,0.1,0,0.2C426.1,424.9,426,424.9,426,424.9z"/>
</g>
<g>
	<path class="st2" d="M462.6,405.1C462.5,405.1,462.5,405.1,462.6,405.1L47.2,158.5c-0.1,0-0.1-0.1,0-0.2c0-0.1,0.1-0.1,0.2,0
		l415.3,246.6C462.8,404.9,462.8,405,462.6,405.1C462.6,405.1,462.6,405.1,462.6,405.1z"/>
</g>
<g>
	<path class="st2" d="M497.3,386.4C497.1,386.4,497.1,386.4,497.3,386.4L77.5,150.3c-0.1,0-0.1-0.1,0-0.2c0-0.1,0.1-0.1,0.2,0
		l419.6,236.1C497.4,386.2,497.4,386.3,497.3,386.4C497.3,386.4,497.3,386.4,497.3,386.4z"/>
</g>
<g>
	<path class="st2" d="M530.1,368.5L530.1,368.5L106.7,142.1c-0.1,0-0.1-0.1,0-0.2c0-0.1,0.1-0.1,0.2-0.1l423.3,226.3
		c0.1,0,0.1,0.1,0.1,0.2C530.3,368.5,530.1,368.5,530.1,368.5z"/>
</g>
<g>
	<path class="st2" d="M558.2,350.3c-0.1,0-0.1,0-0.2-0.1l-4.5-2.3c-0.2-0.1-0.3-0.4-0.2-0.6c0.1-0.2,0.4-0.3,0.6-0.2l4.5,2.3
		c0.2,0.1,0.3,0.4,0.2,0.6C558.6,350.2,558.4,350.3,558.2,350.3z M549.1,345.6c-0.1,0-0.1,0-0.2-0.1l-4.5-2.3
		c-0.2-0.1-0.3-0.4-0.2-0.6c0.1-0.2,0.4-0.3,0.6-0.2l4.5,2.3c0.2,0.1,0.3,0.4,0.2,0.6C549.5,345.5,549.3,345.6,549.1,345.6z
		 M540,341.1c-0.1,0-0.1,0-0.2-0.1l-4.5-2.3c-0.2-0.1-0.3-0.4-0.2-0.6s0.4-0.3,0.6-0.2l4.5,2.3c0.2,0.1,0.3,0.4,0.2,0.6
		C540.4,341,540.2,341.1,540,341.1z M530.9,336.4c-0.1,0-0.1,0-0.2-0.1l-4.5-2.3c-0.2-0.1-0.3-0.4-0.2-0.6s0.4-0.3,0.6-0.2l4.5,2.3
		c0.2,0.1,0.3,0.4,0.2,0.6C531.3,336.3,531.1,336.4,530.9,336.4z M521.8,331.8c-0.1,0-0.1,0-0.2-0.1l-4.5-2.3
		c-0.2-0.1-0.3-0.4-0.2-0.6c0.1-0.2,0.4-0.3,0.6-0.2l4.5,2.3c0.2,0.1,0.3,0.4,0.2,0.6C522.2,331.7,522,331.8,521.8,331.8z
		 M512.7,327.1c-0.1,0-0.1,0-0.2-0.1l-4.5-2.3c-0.2-0.1-0.3-0.4-0.2-0.6c0.1-0.2,0.4-0.3,0.6-0.2l4.5,2.3c0.2,0.1,0.3,0.4,0.2,0.6
		C513.1,327,512.9,327.1,512.7,327.1z M503.6,322.5c-0.1,0-0.1,0-0.2-0.1l-4.5-2.3c-0.2-0.1-0.3-0.4-0.2-0.6
		c0.1-0.2,0.4-0.3,0.6-0.2l4.5,2.3c0.2,0.1,0.3,0.4,0.2,0.6C504,322.4,503.8,322.5,503.6,322.5z M494.5,317.9c-0.1,0-0.1,0-0.2-0.1
		l-4.5-2.3c-0.2-0.1-0.3-0.4-0.2-0.6c0.1-0.2,0.4-0.3,0.6-0.2l4.5,2.3c0.2,0.1,0.3,0.4,0.2,0.6C494.9,317.8,494.7,317.9,494.5,317.9
		z M485.4,313.3c-0.1,0-0.1,0-0.2-0.1l-4.5-2.3c-0.2-0.1-0.3-0.4-0.2-0.6c0.1-0.2,0.4-0.3,0.6-0.2l4.5,2.3c0.2,0.1,0.3,0.4,0.2,0.6
		C485.8,313.2,485.6,313.3,485.4,313.3z M476.3,308.6c-0.1,0-0.1,0-0.2-0.1l-4.5-2.3c-0.2-0.1-0.3-0.4-0.2-0.6
		c0.1-0.2,0.4-0.3,0.6-0.2l4.5,2.3c0.2,0.1,0.3,0.4,0.2,0.6C476.7,308.5,476.5,308.6,476.3,308.6z M467.2,304c-0.1,0-0.1,0-0.2-0.1
		l-4.5-2.3c-0.2-0.1-0.3-0.4-0.2-0.6c0.1-0.2,0.4-0.3,0.6-0.2l4.5,2.3c0.2,0.1,0.3,0.4,0.2,0.6C467.6,303.9,467.4,304,467.2,304z
		 M458.1,299.3c-0.1,0-0.1,0-0.2-0.1l-4.5-2.3c-0.2-0.1-0.3-0.4-0.2-0.6c0.1-0.2,0.4-0.3,0.6-0.2l4.5,2.3c0.2,0.1,0.3,0.4,0.2,0.6
		C458.5,299.2,458.3,299.3,458.1,299.3z M449,294.8c-0.1,0-0.1,0-0.2-0.1l-4.5-2.3c-0.2-0.1-0.3-0.4-0.2-0.6
		c0.1-0.2,0.4-0.3,0.6-0.2l4.5,2.3c0.2,0.1,0.3,0.4,0.2,0.6C449.4,294.7,449.2,294.8,449,294.8z M439.9,290.1c-0.1,0-0.1,0-0.2-0.1
		l-4.5-2.3c-0.2-0.1-0.3-0.4-0.2-0.6c0.1-0.2,0.4-0.3,0.6-0.2l4.5,2.3c0.2,0.1,0.3,0.4,0.2,0.6C440.3,290,440.1,290.1,439.9,290.1z
		 M430.8,285.4c-0.1,0-0.1,0-0.2-0.1l-4.5-2.3c-0.2-0.1-0.3-0.4-0.2-0.6c0.1-0.2,0.4-0.3,0.6-0.2l4.5,2.3c0.2,0.1,0.3,0.4,0.2,0.6
		C431.2,285.3,431,285.4,430.8,285.4z M421.7,280.8c-0.1,0-0.1,0-0.2-0.1l-4.5-2.3c-0.2-0.1-0.3-0.4-0.2-0.6
		c0.1-0.2,0.4-0.3,0.6-0.2l4.5,2.3c0.2,0.1,0.3,0.4,0.2,0.6C422.2,280.7,421.9,280.8,421.7,280.8z M412.6,276.1
		c-0.1,0-0.1,0-0.2-0.1l-4.5-2.3c-0.2-0.1-0.3-0.4-0.2-0.6c0.1-0.2,0.4-0.3,0.6-0.2l4.5,2.3c0.2,0.1,0.3,0.4,0.2,0.6
		C413.1,276,412.8,276.1,412.6,276.1z M403.5,271.6c-0.1,0-0.1,0-0.2-0.1l-4.5-2.3c-0.2-0.1-0.3-0.4-0.2-0.6
		c0.1-0.2,0.4-0.3,0.6-0.2l4.5,2.3c0.2,0.1,0.3,0.4,0.2,0.6C404,271.5,403.7,271.6,403.5,271.6z M394.4,266.9c-0.1,0-0.1,0-0.2-0.1
		l-4.5-2.3c-0.2-0.1-0.3-0.4-0.2-0.6c0.1-0.2,0.4-0.3,0.6-0.2l4.5,2.3c0.2,0.1,0.3,0.4,0.2,0.6C394.9,266.8,394.6,266.9,394.4,266.9
		z M385.3,262.3c-0.1,0-0.1,0-0.2-0.1l-4.5-2.3c-0.2-0.1-0.3-0.4-0.2-0.6c0.1-0.2,0.4-0.3,0.6-0.2l4.5,2.3c0.2,0.1,0.3,0.4,0.2,0.6
		C385.8,262.2,385.6,262.3,385.3,262.3z M376.2,257.6c-0.1,0-0.1,0-0.2-0.1l-4.5-2.3c-0.2-0.1-0.3-0.4-0.2-0.6
		c0.1-0.2,0.4-0.3,0.6-0.2l4.5,2.3c0.2,0.1,0.3,0.4,0.2,0.6C376.6,257.5,376.5,257.6,376.2,257.6z M367.1,253c-0.1,0-0.1,0-0.2-0.1
		l-4.5-2.3c-0.2-0.1-0.3-0.4-0.2-0.6c0.1-0.2,0.4-0.3,0.6-0.2l4.5,2.3c0.2,0.1,0.3,0.4,0.2,0.6C367.5,252.9,367.4,253,367.1,253z
		 M358.1,248.4c-0.1,0-0.1,0-0.2-0.1l-4.5-2.3c-0.2-0.1-0.3-0.4-0.2-0.6c0.1-0.2,0.4-0.3,0.6-0.2l4.5,2.3c0.2,0.1,0.3,0.4,0.2,0.6
		S358.3,248.4,358.1,248.4z M349,243.8c-0.1,0-0.1,0-0.2-0.1l-4.5-2.3c-0.2-0.1-0.3-0.4-0.2-0.6c0.1-0.2,0.4-0.3,0.6-0.2l4.5,2.3
		c0.2,0.1,0.3,0.4,0.2,0.6S349.2,243.8,349,243.8z M339.9,239.1c-0.1,0-0.1,0-0.2-0.1l-4.5-2.3c-0.2-0.1-0.3-0.4-0.2-0.6
		s0.4-0.3,0.6-0.2l4.5,2.3c0.2,0.1,0.3,0.4,0.2,0.6C340.2,239,340.1,239.1,339.9,239.1z M330.8,234.5c-0.1,0-0.1,0-0.2-0.1l-4.5-2.3
		c-0.2-0.1-0.3-0.4-0.2-0.6c0.1-0.2,0.4-0.3,0.6-0.2l4.5,2.3c0.2,0.1,0.3,0.4,0.2,0.6S331,234.5,330.8,234.5z M321.7,229.8
		c-0.1,0-0.1,0-0.2-0.1l-4.5-2.3c-0.2-0.1-0.3-0.4-0.2-0.6c0.1-0.2,0.4-0.3,0.6-0.2l4.5,2.3c0.2,0.1,0.3,0.4,0.2,0.6
		S321.9,229.8,321.7,229.8z M312.6,225.3c-0.1,0-0.1,0-0.2-0.1l-4.5-2.3c-0.2-0.1-0.3-0.4-0.2-0.6s0.4-0.3,0.6-0.2l4.5,2.3
		c0.2,0.1,0.3,0.4,0.2,0.6C312.9,225.2,312.8,225.3,312.6,225.3z M303.5,220.6c-0.1,0-0.1,0-0.2-0.1l-4.5-2.3
		c-0.2-0.1-0.3-0.4-0.2-0.6s0.4-0.3,0.6-0.2l4.5,2.3c0.2,0.1,0.3,0.4,0.2,0.6C303.8,220.5,303.7,220.6,303.5,220.6z M294.4,216
		c-0.1,0-0.1,0-0.2-0.1l-4.5-2.3c-0.2-0.1-0.3-0.4-0.2-0.6s0.4-0.3,0.6-0.2l4.5,2.3c0.2,0.1,0.3,0.4,0.2,0.6
		C294.7,215.8,294.6,216,294.4,216z M285.3,211.3c-0.1,0-0.1,0-0.2-0.1l-4.5-2.3c-0.2-0.1-0.3-0.4-0.2-0.6c0.1-0.2,0.4-0.3,0.6-0.2
		l4.5,2.3c0.2,0.1,0.3,0.4,0.2,0.6S285.5,211.3,285.3,211.3z M276.2,206.6c-0.1,0-0.1,0-0.2-0.1l-4.5-2.3c-0.2-0.1-0.3-0.4-0.2-0.6
		c0.1-0.2,0.4-0.3,0.6-0.2l4.5,2.3c0.2,0.1,0.3,0.4,0.2,0.6S276.4,206.6,276.2,206.6z M267.1,202.1c-0.1,0-0.1,0-0.2-0.1l-4.5-2.3
		c-0.2-0.1-0.3-0.4-0.2-0.6s0.4-0.3,0.6-0.2l4.5,2.3c0.2,0.1,0.3,0.4,0.2,0.6C267.4,202,267.3,202.1,267.1,202.1z M258,197.4
		c-0.1,0-0.1,0-0.2-0.1l-4.5-2.3c-0.2-0.1-0.3-0.4-0.2-0.6s0.4-0.3,0.6-0.2l4.5,2.3c0.2,0.1,0.3,0.4,0.2,0.6
		C258.3,197.3,258.2,197.4,258,197.4z M248.9,192.8c-0.1,0-0.1,0-0.2-0.1l-4.5-2.3c-0.2-0.1-0.3-0.4-0.2-0.6s0.4-0.3,0.6-0.2
		l4.5,2.3c0.2,0.1,0.3,0.4,0.2,0.6S249.1,192.8,248.9,192.8z M239.8,188.1c-0.1,0-0.1,0-0.2-0.1l-4.5-2.3c-0.2-0.1-0.3-0.4-0.2-0.6
		c0.1-0.2,0.4-0.3,0.6-0.2l4.5,2.3c0.2,0.1,0.3,0.4,0.2,0.6C240.1,188,240,188.1,239.8,188.1z M230.7,183.5c-0.1,0-0.1,0-0.2-0.1
		l-4.5-2.3c-0.2-0.1-0.3-0.4-0.2-0.6s0.4-0.3,0.6-0.2l4.5,2.3c0.2,0.1,0.3,0.4,0.2,0.6C231,183.4,230.8,183.5,230.7,183.5z
		 M221.6,178.9c-0.1,0-0.1,0-0.2-0.1l-4.5-2.3c-0.2-0.1-0.3-0.4-0.2-0.6c0.1-0.2,0.4-0.3,0.6-0.2l4.5,2.3c0.2,0.1,0.3,0.4,0.2,0.6
		S221.7,178.9,221.6,178.9z M212.5,174.3c-0.1,0-0.1,0-0.2-0.1l-4.5-2.3c-0.2-0.1-0.3-0.4-0.2-0.6c0.1-0.2,0.4-0.3,0.6-0.2l4.5,2.3
		c0.2,0.1,0.3,0.4,0.2,0.6C212.8,174.2,212.6,174.3,212.5,174.3z M203.4,169.6c-0.1,0-0.1,0-0.2-0.1l-4.5-2.3
		c-0.2-0.1-0.3-0.4-0.2-0.6c0.1-0.2,0.4-0.3,0.6-0.2l4.5,2.3c0.2,0.1,0.3,0.4,0.2,0.6S203.5,169.6,203.4,169.6z M194.3,165
		c-0.1,0-0.1,0-0.2-0.1l-4.5-2.3c-0.2-0.1-0.3-0.4-0.2-0.6c0.1-0.2,0.4-0.3,0.6-0.2l4.5,2.3c0.2,0.1,0.3,0.4,0.2,0.6
		C194.6,164.9,194.4,165,194.3,165z M185.2,160.3c-0.1,0-0.1,0-0.2-0.1l-4.5-2.3c-0.2-0.1-0.3-0.4-0.2-0.6c0.1-0.2,0.4-0.3,0.6-0.2
		l4.5,2.3c0.2,0.1,0.3,0.4,0.2,0.6S185.3,160.3,185.2,160.3z M176.1,155.8c-0.1,0-0.1,0-0.2-0.1l-4.5-2.3c-0.2-0.1-0.3-0.4-0.2-0.6
		c0.1-0.2,0.4-0.3,0.6-0.2l4.5,2.3c0.2,0.1,0.3,0.4,0.2,0.6S176.2,155.8,176.1,155.8z M167,151.1c-0.1,0-0.1,0-0.2-0.1l-4.5-2.3
		c-0.2-0.1-0.3-0.4-0.2-0.6c0.1-0.2,0.4-0.3,0.6-0.2l4.5,2.3c0.2,0.1,0.3,0.4,0.2,0.6S167.1,151.1,167,151.1z M157.9,146.5
		c-0.1,0-0.1,0-0.2-0.1l-4.5-2.3c-0.2-0.1-0.3-0.4-0.2-0.6c0.1-0.2,0.4-0.3,0.6-0.2l4.5,2.3c0.2,0.1,0.3,0.4,0.2,0.6
		C158.2,146.4,158,146.5,157.9,146.5z M148.8,141.8c-0.1,0-0.1,0-0.2-0.1l-4.5-2.3c-0.2-0.1-0.3-0.4-0.2-0.6
		c0.1-0.2,0.4-0.3,0.6-0.2l4.5,2.3c0.2,0.1,0.3,0.4,0.2,0.6S148.9,141.8,148.8,141.8z M139.7,137.2c-0.1,0-0.1,0-0.2-0.1l-4.5-2.3
		c-0.2-0.1-0.3-0.4-0.2-0.6c0.1-0.2,0.4-0.3,0.6-0.2l4.5,2.3c0.2,0.1,0.3,0.4,0.2,0.6C140,137,139.8,137.2,139.7,137.2z"/>
</g>
<g>
	<path class="st2" d="M591.3,335.5L591.3,335.5L162.5,127c-0.1,0-0.1-0.1-0.1-0.2c0-0.1,0.1-0.1,0.2-0.1l428.8,208.5
		c0.1,0,0.1,0.1,0.1,0.2C591.4,335.5,591.4,335.5,591.3,335.5z"/>
</g>
<g>
	<path class="st2" d="M619.8,320C619.7,320,619.7,320,619.8,320L188.9,119.7c-0.1,0-0.1-0.1-0.1-0.2s0.1-0.1,0.2-0.1l430.8,200.4
		C619.9,319.8,619.9,319.9,619.8,320C619.8,320,619.8,320,619.8,320z"/>
</g>
<g>
	<path class="st2" d="M646.9,305.3L646.9,305.3L214.6,112.7c-0.1,0-0.1-0.1-0.1-0.2s0.1-0.1,0.2-0.1L647,305.1
		c0.1,0,0.1,0.1,0.1,0.2C647,305.3,647,305.3,646.9,305.3z"/>
</g>
<g>
	<path class="st2" d="M672.9,291.4C672.9,291.4,672.8,291.4,672.9,291.4L239.5,105.8c-0.1,0-0.1-0.1-0.1-0.2c0-0.1,0.1-0.1,0.2-0.1
		L673,290.9c0.1,0,0.1,0.1,0.1,0.2C673.1,291.4,672.9,291.4,672.9,291.4z"/>
</g>
<g>
	<path class="st2" d="M693.3,276.5c-0.1,0-0.1,0-0.2,0l-4.8-1.9c-0.2-0.1-0.4-0.4-0.3-0.6c0.1-0.2,0.4-0.4,0.6-0.3l4.8,1.9
		c0.2,0.1,0.4,0.4,0.3,0.6C693.7,276.4,693.5,276.5,693.3,276.5z M683.8,272.6c-0.1,0-0.1,0-0.2,0l-4.8-1.9
		c-0.2-0.1-0.4-0.4-0.3-0.6c0.1-0.2,0.4-0.4,0.6-0.3l4.8,1.9c0.2,0.1,0.4,0.4,0.3,0.6C684.3,272.4,684.1,272.6,683.8,272.6z
		 M674.4,268.7c-0.1,0-0.1,0-0.2,0l-4.8-1.9c-0.2-0.1-0.4-0.4-0.3-0.6c0.1-0.2,0.4-0.4,0.6-0.3l4.8,1.9c0.2,0.1,0.4,0.4,0.3,0.6
		C674.7,268.6,674.6,268.7,674.4,268.7z M664.9,264.8c-0.1,0-0.1,0-0.2,0l-4.8-1.9c-0.2-0.1-0.4-0.4-0.3-0.6
		c0.1-0.2,0.4-0.4,0.6-0.3l4.8,1.9c0.2,0.1,0.4,0.4,0.3,0.6C665.3,264.7,665.1,264.8,664.9,264.8z M655.5,260.9c-0.1,0-0.1,0-0.2,0
		l-4.8-1.9c-0.2-0.1-0.4-0.4-0.3-0.6c0.1-0.2,0.4-0.4,0.6-0.3l4.8,1.9c0.2,0.1,0.4,0.4,0.3,0.6C655.9,260.8,655.7,260.9,655.5,260.9
		z M646.1,257.1c-0.1,0-0.1,0-0.2,0l-4.8-1.9c-0.2-0.1-0.4-0.4-0.3-0.6c0.1-0.2,0.4-0.4,0.6-0.3l4.8,1.9c0.2,0.1,0.4,0.4,0.3,0.6
		C646.5,256.9,646.3,257.1,646.1,257.1z M636.7,253.2c-0.1,0-0.1,0-0.2,0l-4.8-1.9c-0.2-0.1-0.4-0.4-0.3-0.6
		c0.1-0.2,0.4-0.4,0.6-0.3l4.8,1.9c0.2,0.1,0.4,0.4,0.3,0.6C637,253.1,636.9,253.2,636.7,253.2z M627.1,249.3c-0.1,0-0.1,0-0.2,0
		l-4.8-1.9c-0.2-0.1-0.4-0.4-0.3-0.6c0.1-0.2,0.4-0.4,0.6-0.3l4.8,1.9c0.2,0.1,0.4,0.4,0.3,0.6C627.6,249.2,627.4,249.3,627.1,249.3
		z M617.7,245.4c-0.1,0-0.1,0-0.2,0l-4.8-1.9c-0.2-0.1-0.4-0.4-0.3-0.6c0.1-0.2,0.4-0.4,0.6-0.3l4.8,1.9c0.2,0.1,0.4,0.4,0.3,0.6
		C618.2,245.3,617.9,245.4,617.7,245.4z M608.3,241.6c-0.1,0-0.1,0-0.2,0l-4.8-1.9c-0.2-0.1-0.4-0.4-0.3-0.6
		c0.1-0.2,0.4-0.4,0.6-0.3l4.8,1.9c0.2,0.1,0.4,0.4,0.3,0.6C608.7,241.3,608.5,241.6,608.3,241.6z M598.9,237.6c-0.1,0-0.1,0-0.2,0
		l-4.8-1.9c-0.2-0.1-0.4-0.4-0.3-0.6s0.4-0.4,0.6-0.3l4.8,1.9c0.2,0.1,0.4,0.4,0.3,0.6C599.2,237.5,599,237.6,598.9,237.6z
		 M589.4,233.7c-0.1,0-0.1,0-0.2,0l-4.8-1.9c-0.2-0.1-0.4-0.4-0.3-0.6c0.1-0.2,0.4-0.4,0.6-0.3l4.8,1.9c0.2,0.1,0.4,0.4,0.3,0.6
		C589.8,233.6,589.6,233.7,589.4,233.7z M580,229.8c-0.1,0-0.1,0-0.2,0l-4.8-1.9c-0.2-0.1-0.4-0.4-0.3-0.6s0.4-0.4,0.6-0.3l4.8,1.9
		c0.2,0.1,0.4,0.4,0.3,0.6C580.4,229.7,580.2,229.8,580,229.8z M570.6,226c-0.1,0-0.1,0-0.2,0l-4.8-1.9c-0.2-0.1-0.4-0.4-0.3-0.6
		c0.1-0.2,0.4-0.4,0.6-0.3l4.8,1.9c0.2,0.1,0.4,0.4,0.3,0.6C570.9,225.8,570.8,226,570.6,226z M561.1,222.1c-0.1,0-0.1,0-0.2,0
		l-4.8-1.9c-0.2-0.1-0.4-0.4-0.3-0.6c0.1-0.2,0.4-0.4,0.6-0.3l4.8,1.9c0.2,0.1,0.4,0.4,0.3,0.6C561.5,222,561.2,222.1,561.1,222.1z
		 M551.6,218.2c-0.1,0-0.1,0-0.2,0l-4.8-1.9c-0.2-0.1-0.4-0.4-0.3-0.6c0.1-0.2,0.4-0.4,0.6-0.3l4.8,1.9c0.2,0.1,0.4,0.4,0.3,0.6
		C552,218.1,551.8,218.2,551.6,218.2z M542.2,214.3c-0.1,0-0.1,0-0.2,0l-4.8-1.9c-0.2-0.1-0.4-0.4-0.3-0.6s0.4-0.4,0.6-0.3l4.8,1.9
		c0.2,0.1,0.4,0.4,0.3,0.6C542.6,214.2,542.4,214.3,542.2,214.3z M532.8,210.5c-0.1,0-0.1,0-0.2,0l-4.8-1.9
		c-0.2-0.1-0.4-0.4-0.3-0.6s0.4-0.4,0.6-0.3l4.8,1.9c0.2,0.1,0.4,0.4,0.3,0.6C533.1,210.3,533,210.5,532.8,210.5z M523.3,206.5
		c-0.1,0-0.1,0-0.2,0l-4.8-1.9c-0.2-0.1-0.4-0.4-0.3-0.6s0.4-0.4,0.6-0.3l4.8,1.9c0.2,0.1,0.4,0.4,0.3,0.6
		C523.7,206.4,523.5,206.5,523.3,206.5z M513.9,202.6c-0.1,0-0.1,0-0.2,0l-4.8-1.9c-0.2-0.1-0.4-0.4-0.3-0.6s0.4-0.4,0.6-0.3
		l4.8,1.9c0.2,0.1,0.4,0.4,0.3,0.6C514.3,202.5,514.1,202.6,513.9,202.6z M504.4,198.7c-0.1,0-0.1,0-0.2,0l-4.8-1.9
		c-0.2-0.1-0.4-0.4-0.3-0.6s0.4-0.4,0.6-0.3l4.8,1.9c0.2,0.1,0.4,0.4,0.3,0.6C504.9,198.6,504.7,198.7,504.4,198.7z M495,194.9
		c-0.1,0-0.1,0-0.2,0L490,193c-0.2-0.1-0.4-0.4-0.3-0.6s0.4-0.4,0.6-0.3l4.8,1.9c0.2,0.1,0.4,0.4,0.3,0.6
		C495.3,194.8,495.2,194.9,495,194.9z M485.5,191c-0.1,0-0.1,0-0.2,0l-4.8-1.9c-0.2-0.1-0.4-0.4-0.3-0.6s0.4-0.4,0.6-0.3l4.8,1.9
		c0.2,0.1,0.4,0.4,0.3,0.6C485.9,190.9,485.7,191,485.5,191z M476.1,187.1c-0.1,0-0.1,0-0.2,0l-4.8-1.9c-0.2-0.1-0.4-0.4-0.3-0.6
		c0.1-0.2,0.4-0.4,0.6-0.3l4.8,1.9c0.2,0.1,0.4,0.4,0.3,0.6C476.5,187,476.3,187.1,476.1,187.1z M466.7,183.2c-0.1,0-0.1,0-0.2,0
		l-4.8-1.9c-0.2-0.1-0.4-0.4-0.3-0.6c0.1-0.2,0.4-0.4,0.6-0.3l4.8,1.9c0.2,0.1,0.4,0.4,0.3,0.6C467.1,183.1,466.9,183.2,466.7,183.2
		z M457.3,179.4c-0.1,0-0.1,0-0.2,0l-4.8-1.9c-0.2-0.1-0.4-0.4-0.3-0.6c0.1-0.2,0.4-0.4,0.6-0.3l4.8,1.9c0.2,0.1,0.4,0.4,0.3,0.6
		C457.6,179.2,457.5,179.4,457.3,179.4z M447.7,175.4c-0.1,0-0.1,0-0.2,0l-4.8-1.9c-0.2-0.1-0.4-0.4-0.3-0.6
		c0.1-0.2,0.4-0.4,0.6-0.3l4.8,1.9c0.2,0.1,0.4,0.4,0.3,0.6C448.2,175.3,448,175.4,447.7,175.4z M438.3,171.5c-0.1,0-0.1,0-0.2,0
		l-4.8-1.9c-0.2-0.1-0.4-0.4-0.3-0.6c0.1-0.2,0.4-0.4,0.6-0.3l4.8,1.9c0.2,0.1,0.4,0.4,0.3,0.6C438.8,171.4,438.5,171.5,438.3,171.5
		z M428.9,167.6c-0.1,0-0.1,0-0.2,0l-4.8-1.9c-0.2-0.1-0.4-0.4-0.3-0.6c0.1-0.2,0.4-0.4,0.6-0.3l4.8,1.9c0.2,0.1,0.4,0.4,0.3,0.6
		C429.3,167.5,429.1,167.6,428.9,167.6z M419.5,163.8c-0.1,0-0.1,0-0.2,0l-4.8-1.9c-0.2-0.1-0.4-0.4-0.3-0.6
		c0.1-0.2,0.4-0.4,0.6-0.3l4.8,1.9c0.2,0.1,0.4,0.4,0.3,0.6S419.6,163.8,419.5,163.8z M410,159.9c-0.1,0-0.1,0-0.2,0L405,158
		c-0.2-0.1-0.4-0.4-0.3-0.6c0.1-0.2,0.4-0.4,0.6-0.3l4.8,1.9c0.2,0.1,0.4,0.4,0.3,0.6C410.4,159.8,410.2,159.9,410,159.9z
		 M400.6,156c-0.1,0-0.1,0-0.2,0l-4.8-1.9c-0.2-0.1-0.4-0.4-0.3-0.6c0.1-0.2,0.4-0.4,0.6-0.3l4.8,1.9c0.2,0.1,0.4,0.4,0.3,0.6
		C401,155.9,400.8,156,400.6,156z M391.2,152.2c-0.1,0-0.1,0-0.2,0l-4.8-1.9c-0.2-0.1-0.4-0.4-0.3-0.6c0.1-0.2,0.4-0.4,0.6-0.3
		l4.8,1.9c0.2,0.1,0.4,0.4,0.3,0.6C391.5,152,391.4,152.2,391.2,152.2z M381.7,148.3c-0.1,0-0.1,0-0.2,0l-4.8-1.9
		c-0.2-0.1-0.4-0.4-0.3-0.6c0.1-0.2,0.4-0.4,0.6-0.3l4.8,1.9c0.2,0.1,0.4,0.4,0.3,0.6C382.1,148.2,381.9,148.3,381.7,148.3z
		 M372.2,144.3c-0.1,0-0.1,0-0.2,0l-4.8-1.9c-0.2-0.1-0.4-0.4-0.3-0.6c0.1-0.2,0.4-0.4,0.6-0.3l4.8,1.9c0.2,0.1,0.4,0.4,0.3,0.6
		C372.6,144.2,372.4,144.3,372.2,144.3z M362.8,140.4c-0.1,0-0.1,0-0.2,0l-4.8-1.9c-0.2-0.1-0.4-0.4-0.3-0.6
		c0.1-0.2,0.4-0.4,0.6-0.3l4.8,1.9c0.2,0.1,0.4,0.4,0.3,0.6C363.2,140.3,363,140.4,362.8,140.4z M353.4,136.6c-0.1,0-0.1,0-0.2,0
		l-4.8-1.9c-0.2-0.1-0.4-0.4-0.3-0.6c0.1-0.2,0.4-0.4,0.6-0.3l4.8,1.9c0.2,0.1,0.4,0.4,0.3,0.6C353.7,136.4,353.6,136.6,353.4,136.6
		z M343.9,132.7c-0.1,0-0.1,0-0.2,0l-4.8-1.9c-0.2-0.1-0.4-0.4-0.3-0.6c0.1-0.2,0.4-0.4,0.6-0.3l4.8,1.9c0.2,0.1,0.4,0.4,0.3,0.6
		C344.3,132.6,344.1,132.7,343.9,132.7z M334.5,128.8c-0.1,0-0.1,0-0.2,0l-4.8-1.9c-0.2-0.1-0.4-0.4-0.3-0.6
		c0.1-0.2,0.4-0.4,0.6-0.3l4.8,1.9c0.2,0.1,0.4,0.4,0.3,0.6C334.9,128.7,334.7,128.8,334.5,128.8z M325,124.9c-0.1,0-0.1,0-0.2,0
		L320,123c-0.2-0.1-0.4-0.4-0.3-0.6c0.1-0.2,0.4-0.4,0.6-0.3l4.8,1.9c0.2,0.1,0.4,0.4,0.3,0.6C325.5,124.8,325.3,124.9,325,124.9z
		 M315.6,121.1c-0.1,0-0.1,0-0.2,0l-4.8-1.9c-0.2-0.1-0.4-0.4-0.3-0.6c0.1-0.2,0.4-0.4,0.6-0.3l4.8,1.9c0.2,0.1,0.4,0.4,0.3,0.6
		C316,120.9,315.8,121.1,315.6,121.1z M306.1,117.2c-0.1,0-0.1,0-0.2,0l-4.8-1.9c-0.2-0.1-0.4-0.4-0.3-0.6c0.1-0.2,0.4-0.4,0.6-0.3
		l4.8,1.9c0.2,0.1,0.4,0.4,0.3,0.6C306.5,117.1,306.3,117.2,306.1,117.2z M296.7,113.2c-0.1,0-0.1,0-0.2,0l-4.8-1.9
		c-0.2-0.1-0.4-0.4-0.3-0.6c0.1-0.2,0.4-0.4,0.6-0.3l4.8,1.9c0.2,0.1,0.4,0.4,0.3,0.6C297.1,113.1,296.9,113.2,296.7,113.2z
		 M287.3,109.3c-0.1,0-0.1,0-0.2,0l-4.8-1.9c-0.2-0.1-0.4-0.4-0.3-0.6c0.1-0.2,0.4-0.4,0.6-0.3l4.8,1.9c0.2,0.1,0.4,0.4,0.3,0.6
		C287.7,109.2,287.5,109.3,287.3,109.3z M277.9,105.5c-0.1,0-0.1,0-0.2,0l-4.8-1.9c-0.2-0.1-0.4-0.4-0.3-0.6
		c0.1-0.2,0.4-0.4,0.6-0.3l4.8,1.9c0.2,0.1,0.4,0.4,0.3,0.6C278.2,105.3,278.1,105.5,277.9,105.5z M268.4,101.6c-0.1,0-0.1,0-0.2,0
		l-4.8-1.9c-0.2-0.1-0.4-0.4-0.3-0.6c0.1-0.2,0.4-0.4,0.6-0.3l4.8,1.9c0.2,0.1,0.4,0.4,0.3,0.6C268.8,101.5,268.6,101.6,268.4,101.6
		z"/>
</g>
<g>
	<path class="st2" d="M721.5,265.1L721.5,265.1L287,92.8c-0.1,0-0.1-0.1-0.1-0.2s0.1-0.1,0.2-0.1l434.4,172.2c0.1,0,0.1,0.1,0.1,0.2
		C721.6,265,721.5,265.1,721.5,265.1z"/>
</g>
<g>
	<path class="st3" d="M36.1,211.2c-0.1,0-0.1,0-0.1-0.1s0-0.1,0.1-0.2l97.4-29.3l28.8-36.3c0,0,0,0,0.1,0l29.5-6l27.5-39.9l26.9-75
		c0,0,0-0.1,0.1-0.1L274,12.8c0.1,0,0.1,0,0.2,0.1l26.2,53.2l24.8,14.4l24.3-5.8h0.1l21.9,26.4l21.9,2.1L436,90.3
		c0.1,0,0.1,0,0.2,0.1c0,0.1,0,0.1-0.1,0.2l-42.6,12.9l0,0l-22-2.1h-0.1L349.5,75l-24.3,5.7H325l-24.9-14.4c0,0,0,0,0-0.1L274,13
		l-27.5,11.4l-26.9,75l0,0l-27.5,39.9c0,0,0,0-0.1,0l-29.5,6l-28.8,36.3c0,0,0,0-0.1,0L36.1,211.2L36.1,211.2z"/>
</g>
<g>
	<path class="st4" d="M75.5,237.5c-0.1,0-0.1,0-0.1-0.1s0-0.1,0.1-0.2l99.7-32.3l30-31.6h0.1l0,0l30,0.3l28.5-40.9l28.3-68.3l0,0
		l28.1-30.9h0.1l0,0h0.1l26,33.8l24.5,15.8l25-17.9h0.1c0,0,0.1,0,0.1,0.1l21.6,32.4l21.6,9.5l20.8,5.6l21-6.8c0.1,0,0.1,0,0.2,0.1
		c0,0.1,0,0.1-0.1,0.2l-21,6.9c0,0,0,0-0.1,0l-20.9-5.6L417.6,98c0,0,0,0-0.1,0L396,65.7l-25,17.8h-0.1l-24.6-15.8l0,0L320.4,34
		l-28,30.8L264,132.9l-28.5,41l-0.1,0.1l0,0l-30-0.3l-30,31.5c0,0,0,0-0.1,0L75.5,237.5L75.5,237.5z"/>
</g>
<g>
	<path class="st5" d="M167.3,299.6c-0.4,0-0.7-0.2-1-0.6c-0.2-0.5,0.1-1.1,0.5-1.3l70.9-26.9l33-21.6l32.2-44.1l32.2-56.4
		c0.2-0.3,0.5-0.5,0.8-0.5l30-0.4c0.2,0,0.3,0,0.5,0.1l27.6,17.2l26.1,5.4l27.2-24.2c0.2-0.2,0.5-0.3,0.8-0.2l24.4,5l23.4,2.5
		c0.1,0,0.2,0,0.3,0.1l21.2,11.1l65.1-24.6c0.5-0.2,1.1,0.1,1.3,0.5c0.2,0.5-0.1,1.1-0.5,1.3l-65.5,24.9c-0.2,0.1-0.5,0.1-0.7,0
		l-21.4-11.2l-23.3-2.5l-24.1-4.9l-27.2,24.2c-0.2,0.2-0.5,0.3-0.8,0.2l-26.8-5.5c-0.1,0-0.2-0.1-0.3-0.1L365.7,150l-29.2,0.4
		l-31.9,56c0,0,0,0.1-0.1,0.1l-32.3,44.2c-0.1,0.1-0.1,0.2-0.2,0.2l-33.2,21.9c-0.1,0-0.1,0.1-0.2,0.1l-71,26.9
		C167.5,299.6,167.4,299.6,167.3,299.6z"/>
</g>
<g>
	<path class="st2" d="M281.5,375c0,0-0.1,0-0.1-0.1c0-0.1,0-0.1,0.1-0.2l140.7-64.3l31.8-21.9l31.7-33.4l30.4-27.3c0,0,0,0,0.1,0
		l26.5-1.5l25.7-5.6c0,0,0,0,0.1,0l23.1,5.6l23.2-3.9l87.8-40.2c0.1,0,0.1,0,0.2,0.1c0,0.1,0,0.1-0.1,0.2l-87.9,40.2l0,0l-23.2,4
		l0,0l-23.1-5.6l-25.7,5.6l-26.5,1.5l-30.4,27.2l-31.7,33.4l-31.8,22l-67,30.6L281.5,375C281.6,375,281.6,375,281.5,375z"/>
</g>
<g>
	<path class="st2" d="M349.8,420.6c0,0-0.1,0-0.1-0.1c0-0.1,0-0.1,0.1-0.2l142.3-72.5l31.7-19.7l31.4-27.3l29.4-19.3l0,0l26.4-6.1
		l24.1-0.4l27.2-25.9h0.1l21.7,1l23-11.7l63.7-32.5c0.1,0,0.1,0,0.2,0.1c0,0.1,0,0.1-0.1,0.2l-86.6,44.1c0,0,0,0-0.1,0l-21.6-1
		l-27.2,25.9h-0.1l-24.1,0.4l-26.3,6.2l-29.4,19.4l-31.4,27.3l-31.7,19.7L349.8,420.6L349.8,420.6z"/>
</g>
<g>
	<path class="st2" d="M221.1,334.7c0,0-0.1,0-0.1-0.1c0-0.1,0-0.1,0.1-0.2l72.4-30l33.8-20.5l33.4-43.7l32.4-30.7h0.1l29.2,5.3
		l29.4-19.1h0.1l25.8,10.8l27.1-17.8l0,0l25-5.4c0,0,0,0,0.1,0l22.6,5.7l22.3-1.2l65.2-27c0.1,0,0.1,0,0.2,0.1c0,0.1,0,0.1-0.1,0.2
		l-65.2,27l0,0l-22.3,1.2l0,0l-22.6-5.7l-25,5.4l-27.2,17.9h-0.1l-25.8-10.8l-29.4,19h-0.1l-29.2-5.3l-32.3,30.7l-33.3,43.7l0,0
		l-34,20.5L221.1,334.7C221.2,334.7,221.2,334.7,221.1,334.7z"/>
</g>
<g>
	<path class="st6" d="M119,266.6C118.9,266.6,118.9,266.6,119,266.6c-0.1-0.2-0.1-0.2,0-0.3l35.4-12.3l33.5-21.4l32.3-28h0.1
		l31.8,3.2l30.3-36.9l29.8-38.6l0,0l28.9-15.8h0.1l27,9.7l26.2-4.5h0.1l24.1,15.3l24.1-5.3h0.1l22.2,9.7l22.1-3.3l42.8-15
		c0.1,0,0.1,0,0.2,0.1c0,0.1,0,0.1-0.1,0.2l-42.9,15l-22.2,3.3c0,0,0,0-0.1,0l-22.1-9.6l-24.1,5.3h-0.1l-23.9-15.8l-26.2,4.5
		c0,0,0,0-0.1,0l-27-9.6l-28.8,15.8l-29.8,38.6l-30.3,37c0,0-0.1,0.1-0.1,0l-31.8-3.2l-32.3,28l-33.6,21.4L119,266.6
		C119.1,266.6,119,266.6,119,266.6z"/>
</g>
<g>
	<path class="st3" d="M0.1,187.3c-0.1,0-0.1,0-0.1-0.1s0-0.1,0.1-0.1l32.9-9.3l31.2-14.1l29.4-24.3l28.1-33.6l0,0l28.8-14.9
		L177.8,62L205,40.2l26.8-14.3c0,0,0,0,0.1,0l26.1,0.5l0,0l25.1,9.6l24.3-17.6h0.1l23.2,12.2l0,0l21.6,30.5L373.1,78l20.8-2.2
		c0.1,0,0.1,0,0.1,0.1s0,0.1-0.1,0.1l-20.8,2.2H373l-21-17l0,0l-21.5-30.5l-23.1-12.2l-24.2,17.7h-0.1L258,26.6l-26-0.5l-26.8,14.2
		l-27.1,21.8L150.7,91l0,0L122,105.8l-28.2,33.8l-29.5,24.3l0,0L33,178L0.1,187.3L0.1,187.3z"/>
</g>
<circle class="st7" cx="237.8" cy="271.5" r="2.9"/>
<circle class="st7" cx="271.4" cy="249.9" r="2.9"/>
<circle class="st7" cx="336" cy="149.2" r="2.9"/>
<circle class="st7" cx="365.9" cy="148.8" r="2.9"/>
<circle class="st7" cx="393.6" cy="166.2" r="2.9"/>
<circle class="st7" cx="420.4" cy="171.5" r="2.9"/>
<circle class="st7" cx="448.2" cy="147.3" r="2.9"/>
<circle class="st7" cx="472.5" cy="152.1" r="2.9"/>
<circle class="st7" cx="495.9" cy="154.9" r="2.9"/>
<circle class="st7" cx="517.5" cy="165.8" r="2.9"/>
<circle class="st7" cx="303.7" cy="205.7" r="2.9"/>
<g>
	<path class="st2" d="M566.6,357.6l-0.6-0.3l8.3-5l-2-0.7l0.5-0.3l2.8,1L566.6,357.6z"/>
	<path class="st2" d="M575.3,362.1l-4.4-2.3l0.5-0.3l5.8-0.8c1.1-0.1,1.8-0.3,2.3-0.4c0.5-0.1,1.1-0.3,1.4-0.5
		c0.5-0.3,0.8-0.6,0.8-1c0.1-0.3-0.1-0.6-0.6-0.8c-0.5-0.3-1.1-0.3-1.7-0.3c-0.6,0.1-1.3,0.3-1.8,0.6l-0.5-0.3l0,0
		c0.7-0.4,1.5-0.7,2.3-0.8c0.8-0.1,1.7,0,2.3,0.4c0.6,0.3,1,0.7,0.8,1.2c-0.1,0.4-0.4,0.8-1.2,1.4c-0.4,0.3-1.1,0.5-1.8,0.7
		c-0.7,0.2-1.6,0.3-2.8,0.5l-4.8,0.7l0,0l3.7,1.9L575.3,362.1z"/>
	<path class="st2" d="M588.1,361.3l-1,0.7c0.5-0.1,1.1-0.2,1.6-0.2s1,0.1,1.4,0.3c0.4,0.2,0.6,0.4,0.6,0.7c0,0.3-0.1,0.6-0.4,1
		c0.6-0.2,1.2-0.3,1.7-0.3s1.1,0.1,1.5,0.3c0.5,0.3,0.7,0.6,0.6,1.2c-0.1,0.4-0.6,1-1.6,1.6l-3.7,2.4l-0.6-0.3l3.7-2.4
		c0.7-0.5,1.2-1,1.3-1.3c0.1-0.3-0.1-0.6-0.5-0.8s-1-0.3-1.6-0.2c-0.5,0.1-1.2,0.3-1.7,0.5l-0.1,0.1c0,0-0.1,0.1-0.2,0.1l-3.8,2.4
		l-0.6-0.3l3.8-2.4c0.7-0.5,1.2-1,1.3-1.3c0.1-0.3-0.1-0.6-0.5-0.8c-0.4-0.2-0.8-0.3-1.4-0.3c-0.5,0-1.1,0.1-1.6,0.3l-4.5,2.9
		l-0.6-0.3l6.5-4L588.1,361.3z"/>
	<path class="st2" d="M600.1,365.4l-0.6-0.3l1-0.6l0.6,0.3L600.1,365.4z M592,370.7l-0.6-0.3l6.3-4.1l0.6,0.3L592,370.7z"/>
	<path class="st2" d="M601.4,368.2l-1.1,0.7c0.5-0.1,1.1-0.2,1.6-0.2s1,0.1,1.4,0.3c0.5,0.3,0.8,0.6,0.7,1.1s-0.6,1-1.5,1.5
		l-3.8,2.5l-0.6-0.3l3.8-2.5c0.7-0.4,1.1-0.8,1.2-1.2c0.1-0.3-0.1-0.5-0.5-0.8c-0.4-0.2-0.8-0.3-1.4-0.3c-0.5,0-1.1,0.1-1.5,0.3
		l-4.4,3l-0.6-0.3l6.2-4.1L601.4,368.2z"/>
	<path class="st2" d="M605.9,376.6c-0.5,0.1-1.1,0.2-1.5,0.2c-0.5,0-1-0.1-1.4-0.3c-0.5-0.3-0.7-0.6-0.6-1.2
		c0.1-0.4,0.6-1.1,1.6-1.6l3.6-2.4l0.6,0.3l-3.6,2.4c-0.7,0.5-1.2,1-1.3,1.3s0,0.6,0.4,0.8s1,0.3,1.4,0.3c0.5,0,1-0.1,1.5-0.3l4.3-3
		l0.6,0.3l-6.1,4.1l-0.5-0.3L605.9,376.6z"/>
	<path class="st2" d="M616.7,374.2l-1.6,1.1l1.2,0.6l-0.5,0.4l-1.2-0.6l-4,2.8c-0.4,0.3-0.6,0.5-0.6,0.6c0,0.2,0,0.3,0.2,0.4
		c0.1,0,0.1,0.1,0.2,0.1s0.2,0.1,0.3,0.1l-0.4,0.4c-0.1,0-0.2,0-0.4-0.1c-0.1,0-0.3-0.1-0.4-0.1c-0.4-0.2-0.5-0.4-0.4-0.7
		s0.4-0.6,1-1.1l4-2.8l-1-0.4l0.5-0.4l1,0.4l1.6-1.1L616.7,374.2z"/>
	<path class="st2" d="M614.2,382.3c-0.7-0.3-1-0.8-0.8-1.5c0.1-0.6,0.6-1.3,1.5-1.8l0.3-0.2c0.8-0.6,1.8-1,2.9-1.2
		c1-0.2,1.8-0.1,2.4,0.2c0.6,0.3,1,0.7,0.7,1.3c-0.1,0.5-0.5,1.1-1.4,1.6l-0.5,0.3l-3.7-1.9l-0.2,0.1c-0.7,0.5-1.2,1-1.3,1.5
		s0,0.8,0.6,1.2c0.3,0.2,0.6,0.3,1.1,0.3c0.4,0.1,0.7,0.1,1.2,0l-0.2,0.4c-0.4,0.1-0.8,0.1-1.3,0
		C615.1,382.7,614.7,382.6,614.2,382.3z M620,378.3c-0.4-0.2-1-0.3-1.7-0.2c-0.6,0.1-1.3,0.3-1.9,0.7l0,0l3.1,1.6l0.1-0.1
		c0.5-0.4,0.8-0.7,1-1.2C620.6,378.8,620.4,378.5,620,378.3z"/>
	<path class="st2" d="M623.3,385c0.3-0.2,0.4-0.4,0.4-0.6s-0.2-0.5-0.6-1c-0.5-0.4-0.7-0.8-0.8-1.2c0-0.3,0.1-0.6,0.6-1
		c0.4-0.3,1.1-0.5,1.7-0.5c0.6,0,1.3,0.1,1.8,0.3c0.6,0.3,0.8,0.6,1,1.1c0,0.4-0.2,0.8-0.7,1.2l0,0l-0.5-0.3
		c0.3-0.2,0.5-0.5,0.4-0.8c0-0.3-0.2-0.5-0.6-0.7c-0.4-0.2-0.8-0.3-1.3-0.3c-0.4,0-0.7,0.1-1.1,0.3c-0.4,0.2-0.4,0.4-0.4,0.6
		s0.2,0.5,0.6,1s0.7,0.8,0.7,1.2c0,0.3-0.2,0.7-0.6,1.1c-0.5,0.3-1.1,0.5-1.8,0.6c-0.6,0-1.3-0.1-1.9-0.4c-0.6-0.3-1-0.7-1-1.2
		s0.2-0.8,0.7-1.2l0,0l0.5,0.3c-0.4,0.3-0.5,0.6-0.4,1c0.1,0.3,0.3,0.5,0.7,0.7s0.8,0.3,1.4,0.3C622.6,385.3,623,385.2,623.3,385z"
		/>
	<path class="st2" d="M631.6,391.1c0.2-0.2,0.3-0.3,0.4-0.4c0.1-0.1,0.3-0.2,0.4-0.3c-0.5,0.1-1.1,0.2-1.6,0.2s-1.1-0.1-1.5-0.3
		c-0.5-0.3-0.7-0.6-0.7-1c0-0.4,0.3-0.7,0.8-1.2c0.5-0.4,1.2-0.6,1.9-0.6s1.5,0.1,2.1,0.4l1.3,0.6l0.7-0.5c0.4-0.3,0.6-0.6,0.6-1
		c0-0.4-0.2-0.5-0.6-0.7s-0.8-0.3-1.3-0.3c-0.4,0-0.8,0.2-1.2,0.4l-0.5-0.3l0,0c0.4-0.3,1-0.5,1.7-0.5c0.7-0.1,1.4,0.1,1.9,0.3
		c0.5,0.3,0.8,0.6,1,1.1c0,0.4-0.2,0.8-0.8,1.3l-2.9,2.1c-0.2,0.1-0.4,0.3-0.5,0.4c-0.2,0.1-0.3,0.3-0.5,0.5L631.6,391.1z
		 M630.1,389.7c0.4,0.2,1,0.3,1.5,0.3s1.1-0.1,1.6-0.3l1.2-0.8l-1.3-0.6c-0.5-0.2-1-0.3-1.6-0.3c-0.5,0-1.1,0.2-1.4,0.4
		c-0.3,0.2-0.5,0.5-0.5,0.7S629.7,389.5,630.1,389.7z"/>
	<path class="st2" d="M637.3,390.5c1-0.7,1.8-1.2,2.8-1.4s1.7-0.2,2.3,0.1c0.4,0.2,0.6,0.4,0.7,0.7c0.1,0.3,0.1,0.5-0.1,1l1-0.6
		l0.4,0.2l-5.8,4.3c-0.7,0.5-1.5,0.8-2.3,1.1c-0.7,0.1-1.5,0-2.2-0.3c-0.2-0.1-0.5-0.3-0.7-0.5s-0.4-0.4-0.5-0.6l0.6-0.3
		c0.1,0.2,0.2,0.4,0.4,0.5c0.2,0.2,0.4,0.3,0.6,0.4c0.5,0.3,1.1,0.3,1.6,0.3c0.5-0.1,1.2-0.3,1.7-0.7l0.8-0.6
		c-0.4,0.1-1,0.2-1.4,0.1c-0.4,0-0.8-0.1-1.2-0.3c-0.6-0.3-0.8-0.7-0.7-1.4c0.2-0.5,0.6-1.2,1.6-1.8L637.3,390.5z M637.7,390.8
		c-0.7,0.5-1.2,1-1.3,1.5c-0.1,0.4,0,0.8,0.5,1.1c0.4,0.2,0.7,0.3,1.2,0.3c0.4,0,0.8-0.1,1.4-0.3l2.8-2c0.2-0.3,0.2-0.6,0.2-0.8
		c0-0.3-0.2-0.5-0.6-0.7c-0.5-0.3-1.2-0.3-1.8-0.1c-0.7,0.2-1.5,0.6-2.2,1.2h-0.2V390.8z"/>
	<path class="st2" d="M643.9,393.7c0.8-0.6,1.7-1.1,2.6-1.3c1-0.2,1.8-0.1,2.4,0.2c0.7,0.3,1,0.8,0.8,1.5c-0.1,0.6-0.5,1.3-1.4,1.9
		l-0.2,0.1c-0.8,0.6-1.7,1.1-2.8,1.3c-1,0.2-1.8,0.1-2.5-0.2c-0.7-0.3-1.1-0.8-0.8-1.5c0.1-0.6,0.6-1.3,1.5-1.9L643.9,393.7z
		 M644.3,394.1c-0.6,0.5-1.1,1.1-1.2,1.5c-0.1,0.5,0.1,1,0.6,1.2c0.5,0.3,1.2,0.3,1.9,0.1c0.7-0.2,1.5-0.5,2.1-1.1l0.2-0.1
		c0.6-0.5,1.1-1,1.2-1.5c0.1-0.5-0.1-0.8-0.6-1.2c-0.5-0.3-1.2-0.3-1.9-0.1c-0.7,0.2-1.5,0.5-2.1,1.1L644.3,394.1z"/>
</g>
<g>
	<path class="st2" d="M704.5,281l5.4-2.1l3.6,1.4l-0.6,0.3l-3.1-1.2l-3.6,1.4c0.4,0,0.7,0,1.1,0s0.7,0.1,1.1,0.2
		c0.6,0.2,0.8,0.5,0.7,1c-0.1,0.4-0.6,0.8-1.6,1.3c-1,0.4-1.9,0.7-2.9,0.8s-1.8,0-2.5-0.3c-0.6-0.2-1-0.5-0.8-0.8
		c0-0.3,0.4-0.7,1.4-1.1l0,0l0.5,0.2c-0.6,0.3-1,0.5-1.1,0.8c-0.1,0.2,0.1,0.5,0.6,0.6c0.5,0.2,1.2,0.3,1.9,0.2s1.5-0.3,2.2-0.6
		s1.1-0.6,1.3-1c0.2-0.3-0.1-0.5-0.5-0.7s-1-0.3-1.4-0.3s-1,0-1.4,0.2L704.5,281z"/>
	<path class="st2" d="M718,283.9l-1.1,0.5c0.5-0.1,1.1-0.2,1.6-0.2s1,0.1,1.4,0.2c0.4,0.2,0.6,0.3,0.7,0.6c0,0.2-0.1,0.5-0.5,0.7
		c0.6-0.2,1.3-0.2,1.8-0.2s1.1,0.1,1.5,0.2c0.6,0.2,0.8,0.5,0.7,0.8s-0.6,0.7-1.7,1.3l-3.9,2l-0.6-0.2l3.9-2
		c0.8-0.4,1.3-0.7,1.4-1.1c0.1-0.2-0.1-0.4-0.5-0.6c-0.5-0.2-1.1-0.2-1.6-0.2c-0.6,0.1-1.2,0.2-1.8,0.4c0,0-0.1,0-0.1,0.1
		c0,0-0.1,0-0.2,0.1l-4,2l-0.6-0.2l3.9-1.9c0.8-0.4,1.3-0.7,1.4-1c0.1-0.2-0.1-0.5-0.5-0.6c-0.4-0.2-1-0.2-1.4-0.2
		c-0.5,0-1.1,0.1-1.6,0.3l-4.8,2.3l-0.6-0.2l6.8-3.3L718,283.9z"/>
	<path class="st2" d="M730.5,286.9l-0.6-0.2l1-0.5l0.6,0.2L730.5,286.9z M722.1,291.3l-0.6-0.2l6.6-3.4l0.6,0.2L722.1,291.3z"/>
	<path class="st2" d="M732.1,289.2l-1.1,0.6c0.5-0.1,1.2-0.2,1.7-0.2s1,0.1,1.4,0.2c0.6,0.2,0.8,0.5,0.8,0.8
		c-0.1,0.3-0.5,0.7-1.5,1.3l-3.9,2.1l-0.6-0.2l3.9-2.1c0.7-0.4,1.2-0.7,1.2-1c0-0.2-0.1-0.4-0.6-0.6c-0.4-0.2-1-0.2-1.5-0.2
		s-1.1,0.1-1.6,0.3l-4.7,2.4l-0.6-0.2l6.5-3.5L732.1,289.2z"/>
	<path class="st2" d="M737.3,296.1c-0.5,0.1-1.1,0.2-1.6,0.2s-1-0.1-1.5-0.3c-0.6-0.2-0.8-0.5-0.7-1c0.1-0.4,0.6-0.8,1.6-1.4l3.6-2
		l0.6,0.2l-3.6,2c-0.7,0.4-1.3,0.8-1.3,1.1c-0.1,0.3,0.1,0.5,0.5,0.7c0.5,0.2,1.1,0.3,1.6,0.2c0.5,0,1.1-0.1,1.6-0.3l4.4-2.5
		l0.6,0.2l-6.2,3.6l-0.6-0.2L737.3,296.1z"/>
	<path class="st2" d="M748.5,293.9l-1.6,1l1.3,0.5l-0.5,0.3l-1.3-0.5l-4,2.3c-0.4,0.2-0.6,0.4-0.6,0.6c0,0.1,0.1,0.3,0.3,0.4
		c0.1,0,0.2,0.1,0.2,0.1c0.1,0,0.2,0,0.3,0.1l-0.4,0.3c-0.1,0-0.3,0-0.4-0.1c-0.2,0-0.3-0.1-0.4-0.1c-0.4-0.2-0.6-0.3-0.5-0.6
		c0-0.2,0.4-0.5,1-1l4-2.3l-1.1-0.4l0.5-0.3l1.1,0.4l1.6-1L748.5,293.9z"/>
	<path class="st2" d="M746.7,300.9c-0.7-0.3-1.2-0.7-1.1-1.3c0.1-0.5,0.5-1.1,1.5-1.6l0.3-0.2c0.8-0.5,1.8-0.8,2.9-1.1
		c1.1-0.1,1.9-0.1,2.6,0.2c0.7,0.3,1.1,0.6,1,1.1c-0.1,0.4-0.5,1-1.3,1.4l-0.5,0.3l-4.2-1.6l-0.2,0.1c-0.7,0.4-1.2,0.8-1.3,1.3
		c-0.1,0.4,0.1,0.7,0.7,1c0.3,0.1,0.7,0.2,1.2,0.3c0.4,0,0.8,0,1.3,0l-0.2,0.4c-0.4,0.1-1,0.1-1.4,0
		C747.6,301.2,747.2,301.1,746.7,300.9z M752.4,297.4c-0.5-0.2-1.1-0.2-1.8-0.1c-0.7,0.1-1.4,0.3-2,0.6l0,0l3.5,1.3l0.1-0.1
		c0.5-0.3,0.8-0.6,0.8-1C753.1,297.8,752.9,297.5,752.4,297.4z"/>
	<path class="st2" d="M756.8,303.1c0.3-0.2,0.4-0.4,0.4-0.6s-0.3-0.5-0.7-0.8c-0.5-0.3-1-0.7-1-1c-0.1-0.3,0.1-0.6,0.5-0.8
		c0.4-0.3,1.1-0.4,1.7-0.5c0.7,0,1.4,0,2,0.3c0.6,0.2,1.1,0.5,1.2,1c0.1,0.3-0.1,0.7-0.6,1.1l0,0l-0.6-0.2c0.3-0.2,0.4-0.4,0.4-0.7
		c0-0.2-0.3-0.5-0.7-0.6c-0.5-0.2-1-0.2-1.4-0.2s-0.8,0.1-1.1,0.3s-0.4,0.3-0.3,0.5c0,0.2,0.3,0.4,0.8,0.7c0.5,0.3,0.8,0.7,1,1.1
		c0.1,0.3-0.1,0.6-0.5,1c-0.5,0.3-1.2,0.5-1.8,0.5c-0.7,0-1.5-0.1-2.1-0.3c-0.7-0.3-1.2-0.6-1.3-1.1c-0.1-0.4,0.1-0.7,0.6-1.1l0,0
		l0.6,0.2c-0.4,0.3-0.5,0.5-0.4,0.8c0.1,0.2,0.4,0.4,0.8,0.6c0.5,0.2,1,0.3,1.5,0.2C756.1,303.4,756.5,303.3,756.8,303.1z"/>
	<path class="st2" d="M766.7,308.5c0.2-0.2,0.3-0.3,0.4-0.4c0.1-0.1,0.3-0.2,0.4-0.3c-0.5,0.1-1.1,0.2-1.7,0.2s-1.2-0.1-1.7-0.3
		c-0.6-0.2-1-0.5-1-0.8s0.2-0.7,0.7-1.1c0.5-0.3,1.2-0.5,2-0.5s1.6,0.1,2.3,0.4l1.5,0.6l0.7-0.5c0.4-0.3,0.5-0.5,0.5-0.8
		s-0.3-0.5-0.8-0.6c-0.4-0.2-1-0.2-1.5-0.2s-1,0.1-1.3,0.4l-0.6-0.2l0,0c0.4-0.3,1-0.5,1.7-0.5c0.7-0.1,1.5,0,2.1,0.3
		c0.6,0.2,1.1,0.5,1.2,1c0.1,0.4-0.1,0.7-0.7,1.2l-2.8,2c-0.2,0.1-0.4,0.3-0.5,0.4c-0.2,0.1-0.3,0.3-0.4,0.4L766.7,308.5z
		 M764.9,307.2c0.5,0.2,1.2,0.3,1.7,0.3c0.6,0,1.2-0.1,1.7-0.3l1.1-0.7l-1.6-0.6c-0.5-0.2-1.2-0.3-1.8-0.3s-1.1,0.2-1.5,0.4
		c-0.3,0.2-0.5,0.4-0.4,0.6C764.2,306.9,764.4,307.1,764.9,307.2z"/>
	<path class="st2" d="M772.9,307.8c0.8-0.6,1.8-1.1,2.8-1.3c1-0.2,1.8-0.2,2.5,0.1c0.4,0.2,0.7,0.4,1,0.6c0.2,0.2,0.2,0.5,0.1,0.8
		l1-0.6l0.5,0.2l-5.5,4.1c-0.7,0.5-1.5,0.8-2.3,1c-0.8,0.1-1.7,0-2.5-0.3c-0.3-0.1-0.6-0.3-0.8-0.4c-0.3-0.2-0.5-0.4-0.6-0.5
		l0.6-0.3c0.1,0.2,0.3,0.3,0.5,0.5c0.2,0.1,0.5,0.3,0.8,0.4c0.6,0.2,1.3,0.3,1.9,0.2c0.6-0.1,1.2-0.3,1.8-0.7l0.8-0.6
		c-0.5,0.1-1,0.2-1.5,0.2s-1-0.1-1.4-0.3c-0.7-0.3-1.1-0.7-1.1-1.3c0.1-0.5,0.5-1.1,1.4-1.7V307.8z M773.4,308.1
		c-0.6,0.5-1.1,1-1.2,1.4c-0.1,0.4,0.2,0.7,0.7,1c0.4,0.2,1,0.2,1.4,0.2c0.5,0,1-0.1,1.5-0.3l2.6-1.9c0.1-0.3,0.2-0.5,0.1-0.8
		c-0.1-0.2-0.4-0.4-0.8-0.6c-0.6-0.2-1.3-0.2-2,0s-1.5,0.5-2.2,1.1L773.4,308.1z"/>
	<path class="st2" d="M780.7,310.6c0.8-0.6,1.7-1,2.8-1.2s1.9-0.1,2.8,0.2c0.8,0.3,1.3,0.7,1.3,1.4c0,0.6-0.3,1.2-1.2,1.8l-0.2,0.1
		c-0.7,0.6-1.7,1.1-2.8,1.3c-1.1,0.2-2,0.1-2.9-0.2c-0.8-0.3-1.3-0.8-1.3-1.4c0-0.6,0.4-1.2,1.3-1.8L780.7,310.6z M781.3,311
		c-0.6,0.5-1,1-1.1,1.5s0.2,0.8,1,1.1c0.6,0.2,1.4,0.3,2.2,0.1c0.8-0.2,1.5-0.5,2.1-1.1l0.2-0.1c0.6-0.4,1-1,1-1.4
		c0-0.4-0.3-0.8-1-1.1c-0.6-0.2-1.4-0.3-2.2-0.1c-0.8,0.2-1.5,0.5-2.1,1L781.3,311z"/>
</g>
<g>
	<path class="st8" d="M472.5,145.8c-0.3,0-0.5-0.2-0.5-0.5V84.7c0-0.3,0.2-0.5,0.5-0.5s0.5,0.2,0.5,0.5v60.6
		C473,145.5,472.7,145.8,472.5,145.8z"/>
</g>
<g>
	<path class="st8" d="M336,141.7c-0.3,0-0.5-0.2-0.5-0.5V80.6c0-0.3,0.2-0.5,0.5-0.5s0.5,0.2,0.5,0.5v60.6
		C336.5,141.4,336.3,141.7,336,141.7z"/>
</g>
<g>
	<path class="st0" d="M366.7,68.2c0-5.6-4.5-10.3-10.3-10.3h-39.7c-5.6,0-10.3,4.5-10.3,10.3v2c0,5.6,4.5,10.3,10.3,10.3h39.7
		c5.6,0,10.3-4.5,10.3-10.3V68.2z"/>
	<path class="st1" d="M356.5,81h-39.7c-5.9,0-10.7-4.8-10.7-10.7v-2c0-5.9,4.8-10.7,10.7-10.7h39.7c5.9,0,10.7,4.8,10.7,10.7v2
		C367.1,76.2,362.4,81,356.5,81z M316.8,58.6c-5.4,0-9.7,4.3-9.7,9.7v2c0,5.4,4.3,9.7,9.7,9.7h39.7c5.4,0,9.7-4.3,9.7-9.7v-2
		c0-5.4-4.3-9.7-9.7-9.7H316.8z"/>
</g>
<g>
	<path class="st1" d="M313.7,72.4h2v-6.7h-1.6V65c0.8-0.1,1.4-0.3,1.9-0.6h0.8v8h1.8v1h-5v-1H313.7z"/>
	<path class="st1" d="M320.1,72.7c2.9-2.4,4.1-4.2,4.1-5.8c0-1.1-0.5-1.8-1.7-1.8c-0.7,0-1.4,0.4-1.9,1.1l-0.6-0.6
		c0.7-0.8,1.5-1.4,2.6-1.4c1.6,0,2.6,1.1,2.6,2.6c0,1.8-1.4,3.6-3.5,5.6c0.4,0,1.1-0.1,1.5-0.1h2.5v1h-5.6v-0.5h0V72.7z"/>
	<path class="st1" d="M327.2,67.8c0-0.5,0.3-0.8,0.8-0.8s0.8,0.3,0.8,0.8s-0.3,0.8-0.8,0.8S327.2,68.3,327.2,67.8z M327.2,72.7
		c0-0.5,0.3-0.8,0.8-0.8s0.8,0.3,0.8,0.8s-0.3,0.8-0.8,0.8C327.5,73.6,327.2,73.2,327.2,72.7z"/>
	<path class="st1" d="M330.3,68.8c0-3.2,1.1-4.7,2.9-4.7c1.7,0,2.8,1.5,2.8,4.7s-1.1,4.7-2.8,4.7C331.4,73.6,330.3,72,330.3,68.8z
		 M334.8,68.8c0-2.6-0.6-3.7-1.7-3.7s-1.7,1.1-1.7,3.7s0.6,3.8,1.7,3.8C334.1,72.6,334.8,71.5,334.8,68.8z"/>
	<path class="st1" d="M336.9,72.3l0.5-0.7c0.5,0.5,1.2,1,2.2,1c1.1,0,1.9-0.8,1.9-2.1s-0.7-2-1.9-2c-0.6,0-1,0.2-1.5,0.5l-0.6-0.3
		l0.3-4.2h4.3v1h-3.4l-0.2,2.6c0.4-0.2,0.8-0.3,1.4-0.3c1.5,0,2.8,0.8,2.8,2.9c0,2-1.4,3.1-3,3.1C338.3,73.6,337.4,72.9,336.9,72.3z
		"/>
	<path class="st1" d="M344.2,67.8c0-0.5,0.3-0.8,0.8-0.8c0.4,0,0.8,0.3,0.8,0.8s-0.3,0.8-0.8,0.8S344.2,68.3,344.2,67.8z
		 M344.2,72.7c0-0.5,0.3-0.8,0.8-0.8c0.4,0,0.8,0.3,0.8,0.8s-0.3,0.8-0.8,0.8C344.5,73.6,344.2,73.2,344.2,72.7z"/>
	<path class="st1" d="M347.3,72.7c2.9-2.4,4.1-4.2,4.1-5.8c0-1.1-0.5-1.8-1.7-1.8c-0.7,0-1.4,0.4-1.9,1.1l-0.6-0.6
		c0.7-0.8,1.5-1.4,2.6-1.4c1.6,0,2.6,1.1,2.6,2.6c0,1.8-1.4,3.6-3.5,5.6c0.4,0,1.1-0.1,1.5-0.1h2.5v1h-5.6v-0.5l0,0V72.7z"/>
	<path class="st1" d="M353.8,72.3l0.5-0.7c0.5,0.5,1.2,1.1,2.2,1.1s1.8-0.6,1.8-1.7c0-1.1-0.7-1.8-2.8-1.8v-0.8
		c1.8,0,2.5-0.7,2.5-1.7c0-0.8-0.6-1.4-1.5-1.5c-0.7,0-1.4,0.4-1.9,0.8l-0.6-0.7c0.6-0.6,1.5-1.1,2.5-1.1c1.5,0,2.6,0.8,2.6,2.2
		c0,1.1-0.6,1.8-1.6,2.1l0,0c1.1,0.2,1.9,1.1,1.9,2.3c0,1.6-1.3,2.5-2.9,2.5C355.3,73.6,354.5,72.9,353.8,72.3z"/>
</g>
<g>
	<path class="st1" d="M450,77.1h2v-6.7h-1.6v-0.7c0.8-0.1,1.4-0.3,1.9-0.6h0.8v8h1.8v1h-5L450,77.1L450,77.1z"/>
	<path class="st1" d="M456.3,77.3c2.9-2.4,4.1-4.2,4.1-5.8c0-1.1-0.5-1.8-1.7-1.8c-0.7,0-1.4,0.4-1.9,1.1l-0.6-0.6
		c0.7-0.8,1.5-1.4,2.6-1.4c1.6,0,2.6,1.1,2.6,2.6c0,1.8-1.4,3.6-3.5,5.6c0.4,0,1.1-0.1,1.5-0.1h2.5v1h-5.6v-0.5l0,0V77.3z"/>
	<path class="st1" d="M463.4,72.3c0-0.5,0.3-0.8,0.8-0.8c0.4,0,0.8,0.3,0.8,0.8s-0.3,0.8-0.8,0.8C463.8,73.2,463.4,72.8,463.4,72.3z
		 M463.4,77.3c0-0.5,0.3-0.8,0.8-0.8c0.4,0,0.8,0.3,0.8,0.8s-0.3,0.8-0.8,0.8C463.8,78.1,463.4,77.8,463.4,77.3z"/>
	<path class="st1" d="M467,77.1h2v-6.7h-1.6v-0.7c0.8-0.1,1.4-0.3,1.9-0.6h0.8v8h1.8v1h-5L467,77.1L467,77.1z"/>
	<path class="st1" d="M473.3,73.5c0-3.2,1.1-4.7,2.9-4.7c1.7,0,2.8,1.5,2.8,4.7s-1.1,4.7-2.8,4.7C474.4,78.1,473.3,76.5,473.3,73.5z
		 M477.9,73.5c0-2.6-0.6-3.7-1.7-3.7s-1.7,1.1-1.7,3.7s0.6,3.8,1.7,3.8C477.2,77.3,477.9,76.1,477.9,73.5z"/>
	<path class="st1" d="M480.4,72.3c0-0.5,0.3-0.8,0.8-0.8c0.4,0,0.8,0.3,0.8,0.8s-0.3,0.8-0.8,0.8S480.4,72.8,480.4,72.3z
		 M480.4,77.3c0-0.5,0.3-0.8,0.8-0.8c0.4,0,0.8,0.3,0.8,0.8s-0.3,0.8-0.8,0.8S480.4,77.8,480.4,77.3z"/>
	<path class="st1" d="M489.3,75.5h-1.2v2.4H487v-2.4h-3.9v-0.7l3.7-5.8h1.3v5.6h1.2V75.5z M487.1,74.6v-2.8c0-0.4,0-1.2,0.1-1.6l0,0
		c-0.2,0.4-0.4,0.8-0.7,1.4l-2,3.1L487.1,74.6L487.1,74.6z"/>
	<path class="st1" d="M490.8,77.1h2v-6.7h-1.6v-0.7c0.8-0.1,1.4-0.3,1.9-0.6h0.8v8h1.8v1h-5v-1H490.8z"/>
</g>
</svg>
