<?xml version="1.0" encoding="utf-8"?>
<!-- Generator: Adobe Illustrator 22.0.1, SVG Export Plug-In . SVG Version: 6.00 Build 0)  -->
<svg version="1.1" id="Layer_1" xmlns="http://www.w3.org/2000/svg" xmlns:xlink="http://www.w3.org/1999/xlink" x="0px" y="0px"
	 viewBox="0 0 423.3 425.4" style="enable-background:new 0 0 423.3 425.4;" xml:space="preserve">
<style type="text/css">
	.st0{fill:#444444;}
	.st1{fill:#417C9D;}
	.st2{fill:none;stroke:#999999;stroke-width:0.75;stroke-miterlimit:10;}
	.st3{fill:none;stroke:#444444;stroke-width:1.5;stroke-miterlimit:10;}
	.st4{enable-background:new    ;}
	.st5{fill:#FFFFFF;}
	.st6{fill:#FFFFFF;stroke:#444444;stroke-width:1.5;stroke-miterlimit:10;}
</style>
<polygon class="st0" points="118.6,335.9 118.3,342.3 123.9,339.1 121.6,337.7 141.7,304.3 141.1,303.9 120.9,337.3 "/>
<polygon class="st0" points="308,335.9 308.3,342.3 302.8,339.1 305.1,337.7 284.9,304.3 285.5,303.9 305.7,337.3 "/>
<circle class="st1" cx="211.7" cy="217.5" r="40"/>
<circle class="st2" cx="211.7" cy="217.5" r="55"/>
<circle class="st2" cx="211.7" cy="217.5" r="70"/>
<circle class="st2" cx="211.7" cy="217.5" r="85"/>
<circle class="st3" cx="211.7" cy="217.5" r="100"/>
<circle class="st3" cx="211.7" cy="217.5" r="180"/>
<circle class="st0" cx="211.7" cy="117.5" r="35"/>
<circle class="st0" cx="306.7" cy="187.5" r="35"/>
<circle class="st0" cx="273.7" cy="295.5" r="35"/>
<circle class="st0" cx="149.7" cy="295.5" r="35"/>
<circle class="st0" cx="116.7" cy="187.5" r="35"/>
<g class="st4">
	<path class="st5" d="M200.8,115.9c-0.1-0.3-0.2-0.5-0.3-0.7c2-0.3,3.6-0.9,4.9-1.7c-0.2-0.1-0.5-0.2-1-0.5c-1-0.4-1.7-0.8-2.3-1.1
		c0.4-0.7,0.8-1.3,1.1-1.8H200v-0.6h3.6c0.4-0.7,0.8-1.4,1.1-2.1l0.6,0.3c-0.4,0.8-0.8,1.4-1,1.9h7v0.6h-2.4
		c-0.5,1.3-1.2,2.4-2.2,3.2c1.7,0.7,3,1.3,3.8,1.7l-0.4,0.6c-1.7-0.8-3.1-1.5-4-1.9C204.7,114.8,203,115.4,200.8,115.9z
		 M204.9,104.9l0.6-0.3c0.3,0.4,0.6,0.9,1,1.5l-0.5,0.3h4.7v2h-0.6V107h-8.8v1.4h-0.7v-2h5.3C205.5,105.8,205.2,105.3,204.9,104.9z
		 M202.9,111.8c0.2,0.1,0.4,0.2,0.8,0.3c1,0.4,1.7,0.7,2.2,1c1-0.8,1.8-1.8,2.2-2.9h-4.3C203.6,110.7,203.3,111.2,202.9,111.8z"/>
	<path class="st5" d="M222.8,109.4c-2.3-1.1-4.1-2.5-5.2-4c-1.4,1.7-3.1,3-5.3,4.1c-0.2-0.2-0.3-0.4-0.5-0.5
		c2.6-1.3,4.4-2.8,5.6-4.5l0.7,0.1c0,0,0,0.1-0.1,0.1c-0.1,0.1-0.1,0.2-0.2,0.2c1.3,1.6,3,2.9,5.3,3.9
		C223.2,108.9,223,109.1,222.8,109.4z M213.9,109.1h7.5v0.6H218v2.1h3.8v0.6H218v2.3h4.9v0.6h-10.4v-0.6h4.9v-2.3h-3.8v-0.6h3.8
		v-2.1H214v-0.6H213.9z"/>
</g>
<g class="st4">
	<path class="st5" d="M202.3,118.9l0.6,0.1c-0.2,0.4-0.4,0.8-0.7,1.1h3.4v0.5h-3.8c-0.4,0.6-0.9,1.1-1.5,1.5
		c-0.2-0.2-0.3-0.4-0.5-0.5C200.9,121,201.7,120.1,202.3,118.9z M201.2,124.5h4.1v-1.2h-5.1v-0.5h5.1v-0.7h0.6v0.7h5.1v0.5h-5.1v1.2
		h4.1v1.8c0,0.7-0.3,1-1.1,1.1c-0.1,0-0.2,0-0.4,0c-0.1,0-0.2,0-0.2,0c-0.1,0-0.2,0-0.4,0c0,0,0,0,0-0.1c0-0.2-0.1-0.4-0.1-0.5
		c0.1,0,0.4,0,0.6,0c0.1,0,0.2,0,0.3,0c0.5,0,0.7-0.2,0.7-0.6v-1.1h-3.5v1c1.4,1.6,3.2,2.7,5.4,3.2c-0.2,0.2-0.3,0.4-0.4,0.6
		c-2.2-0.7-3.9-1.7-5-3.1v3.6h-0.6v-3.6c-1.1,1.4-2.8,2.5-5,3.3c-0.1-0.2-0.3-0.4-0.4-0.6c2.2-0.7,4-1.8,5.4-3.4v-1h-3.5v2.2h-0.6
		V124.5z M203.9,122l-0.5,0.4c-0.3-0.4-0.7-0.8-0.9-1l0.5-0.3C203.3,121.3,203.6,121.6,203.9,122z M207.3,118.9l0.6,0.1
		c-0.2,0.5-0.4,0.8-0.5,1.1h3.8v0.5h-4.1c-0.3,0.4-0.6,0.8-0.9,1.2c-0.1-0.1-0.3-0.2-0.6-0.4C206.3,120.8,206.8,120,207.3,118.9z
		 M209.2,122l-0.5,0.4c-0.3-0.3-0.6-0.7-1-1.1l0.5-0.4C208.7,121.4,209,121.8,209.2,122z"/>
	<path class="st5" d="M212.5,120.2h3.8v9h-0.6v-0.6H213v0.8h-0.6v-9.2H212.5z M213.1,120.7v3.4h1.1v-3.4H213.1z M213.1,124.6v3.4
		h1.1v-3.4H213.1z M215.8,120.7h-1.1v3.4h1.1V120.7z M214.7,124.6v3.4h1.1v-3.4H214.7z M217.2,122.9c-0.1-0.1-0.3-0.3-0.4-0.4
		c0.9-1.1,1.5-2.3,2-3.5l0.6,0.2c0,0.1-0.1,0.1-0.1,0.3c-0.2,0.4-0.3,0.7-0.4,0.8h3.7v0.6c-0.6,1.2-1.3,2.1-2,2.7
		c0.8,0.6,1.7,1,2.8,1.4c-0.1,0.2-0.2,0.4-0.3,0.6c-1.2-0.5-2.2-1-2.9-1.5c-0.7,0.6-1.8,1.1-3.1,1.7c-0.1-0.2-0.2-0.4-0.3-0.5
		c1.2-0.5,2.2-1,3-1.5c-0.6-0.5-1.1-1.2-1.5-2C217.9,122,217.6,122.4,217.2,122.9z M217.7,125.9h4.6v4.4h-0.6v-0.7h-3.4v0.7h-0.6
		V125.9z M218.3,126.4v2.6h3.4v-2.6H218.3z M218.5,120.9L218.5,120.9c-0.1,0.1-0.1,0.1-0.1,0.1c0.4,0.9,1,1.6,1.6,2.2
		c0.7-0.6,1.3-1.4,1.8-2.4L218.5,120.9L218.5,120.9z"/>
</g>
<g class="st4">
	<path class="st5" d="M296.2,183.2c-0.1-0.2-0.2-0.4-0.3-0.6c1.1-0.3,2.2-0.7,3.2-1.1v-0.2v-2.4h0.6v2.3v0.1c1.8-0.8,3.5-1.7,5-2.8
		l0.4,0.5c-1.6,1.1-3.4,2.1-5.3,2.9c0.1,0.3,0.5,0.5,1,0.4h2.3c0.6,0,0.9-0.2,1-0.7c0.1-0.3,0.1-0.6,0.2-0.9
		c0.2,0.1,0.4,0.1,0.6,0.2c-0.1,0.4-0.1,0.7-0.2,1.1c-0.1,0.6-0.6,0.9-1.5,0.9h-2.6c-0.8,0-1.2-0.2-1.4-0.8
		C298.4,182.4,297.4,182.8,296.2,183.2z M301,175.9l0.7-0.2c0.1,0.2,0.2,0.6,0.4,1.2h4.8v1.8h-0.6v-1.2H297v1.2h-0.7v-1.8h5
		C301.2,176.5,301.1,176.2,301,175.9z M297.7,179.1l0.6,0.2c-0.4,0.7-0.7,1.5-1.1,2.1c-0.1-0.1-0.3-0.2-0.6-0.3
		C297,180.5,297.3,179.8,297.7,179.1z M301.3,183.2h0.6v2.7h3.3v-2.3h0.6v3.3h-0.6v-0.5h-7.9v-2.8h0.6v2.3h3.3L301.3,183.2
		L301.3,183.2z M300.6,178.3l0.4-0.4c0.5,0.4,0.9,0.8,1.3,1.2l-0.5,0.4C301.5,179.1,301,178.7,300.6,178.3z M305.3,179.8l0.5-0.3
		c0.4,0.5,0.9,1.1,1.4,1.8l-0.5,0.4C306.1,180.9,305.7,180.3,305.3,179.8z"/>
	<path class="st5" d="M308.2,179.8c-0.1-0.2-0.2-0.3-0.3-0.5v-0.1c0.8-0.8,1.4-2,1.9-3.4l0.6,0.2c-0.2,0.5-0.4,1-0.6,1.4h2.4v0.6
		h-2.7C309.1,178.5,308.7,179.2,308.2,179.8z M308,181.6h1.7V180h-0.8v-0.6h2.9v0.6h-1.5v1.6h2v0.6h-2v2.8c0.5-0.5,1-1,1.5-1.4
		c0.1,0.3,0.2,0.5,0.2,0.6c-0.3,0.3-0.9,0.8-1.7,1.7c-0.2,0.2-0.3,0.3-0.4,0.4l-0.5-0.6c0.2-0.2,0.3-0.5,0.3-0.9v-2.6H308V181.6
		L308,181.6z M317,186.2c0.4,0,0.7-0.1,0.8-0.2c0.1-0.1,0.2-0.3,0.2-0.7V183h-4.2c-0.1,1.5-0.7,2.8-1.7,4c-0.1-0.1-0.3-0.3-0.6-0.4
		c0.8-0.8,1.3-1.6,1.5-2.4c0.2-0.8,0.4-2,0.3-3.8v-4h5.3v9c0,1-0.5,1.4-1.5,1.5c-0.3,0-0.5,0-0.8,0c-0.1,0-0.2,0-0.3,0
		c-0.1,0-0.2,0-0.4,0c0-0.3-0.1-0.5-0.1-0.7C315.8,186.2,316.3,186.2,317,186.2z M313.9,180.3c0,0.8,0,1.5-0.1,2.1h4.1v-2.5h-4.1
		v0.4H313.9z M313.9,177v2.4h4.1V177H313.9z"/>
	<path class="st5" d="M296,195h2.1v-4.9h0.7v4.9h8.3v0.6h-5.2c0.9,2.2,2.7,3.7,5.3,4.6c-0.2,0.2-0.3,0.4-0.5,0.7
		c-2.7-1.1-4.6-2.9-5.5-5.3h-2.4v4.6c1.2-0.6,2.1-1,2.9-1.3c0,0.2,0,0.3,0,0.4s0,0.2,0,0.3c-0.8,0.3-1.7,0.7-2.6,1.2
		c-0.3,0.1-0.6,0.3-0.8,0.5l-0.5-0.6c0.2-0.2,0.3-0.5,0.3-0.8v-4.3H296V195L296,195z M300.2,194c-0.1-0.2-0.2-0.4-0.3-0.6
		c2.2-0.8,4.2-1.7,5.8-2.7l0.4,0.5C304.3,192.2,302.4,193.2,300.2,194z"/>
	<path class="st5" d="M313.7,190.2l0.6-0.1c0.1,0.5,0.2,1,0.3,1.3h4.4v0.6h-9.4v3.4c0,1.5-0.1,2.7-0.3,3.5s-0.5,1.6-1.1,2.5
		c-0.2-0.2-0.3-0.3-0.5-0.4c0.5-0.9,0.9-1.6,1-2.3c0.2-0.7,0.2-1.8,0.2-3.4v-3.9h4.9c0-0.2-0.1-0.4-0.2-0.8
		C313.8,190.4,313.8,190.3,313.7,190.2z M318.8,201.3c-1.8-0.3-3.3-0.7-4.4-1.3c-1,0.5-2.5,1-4.4,1.4c-0.1-0.2-0.2-0.4-0.4-0.6
		c1.6-0.3,2.9-0.7,4.1-1.2c-0.9-0.5-1.7-1.3-2.3-2.2h-0.8v-0.6h7v0.6c-0.8,0.9-1.7,1.6-2.6,2.1c1,0.4,2.4,0.8,4.1,1
		C319,200.9,318.9,201.1,318.8,201.3z M316.2,192.4h0.6v1h2.2v0.6h-2.2v1.8H312V194h-1.7v-0.6h1.7v-1h0.6v1h3.6V192.4L316.2,192.4z
		 M316.9,197.5h-4.7c0.7,0.8,1.4,1.4,2.2,1.9C315.3,198.8,316.1,198.2,316.9,197.5z M312.6,194v1.3h3.6V194H312.6z"/>
</g>
<g class="st4">
	<path class="st5" d="M103.5,180.9c0.3-0.1,0.9-0.2,1.8-0.5v-2.8h-1.6V177h1.6v-2.3h0.6v2.3h1.4v0.6h-1.4v2.7
		c0.2-0.1,0.6-0.2,1.1-0.3c0.2-0.1,0.3-0.1,0.4-0.1c0,0.3,0,0.5,0,0.6c-0.4,0.1-0.9,0.3-1.5,0.4v3.6c0,0.9-0.3,1.3-1.2,1.3
		c-0.3,0-0.5,0-0.9,0c0-0.2-0.1-0.4-0.2-0.7c0.1,0,0.2,0,0.3,0s0.1,0,0.2,0c0.1,0,0.2,0,0.3,0c0.3,0,0.4,0,0.5-0.2
		c0.1-0.1,0.1-0.3,0.1-0.6v-3.4c-0.1,0-0.3,0.1-0.6,0.2c-0.2,0-0.5,0.2-1.1,0.3L103.5,180.9z M108.1,179.9v-0.6h2.9v-2.1h-3v-0.6h3
		v-1.9h0.6v1.9h3.2v0.6h-3.2v2.1h2.5v0.6c-0.6,1.7-1.4,2.9-2.4,3.8c0.7,0.6,1.8,1.2,3.2,1.7c-0.2,0.2-0.3,0.4-0.4,0.6
		c-1.4-0.6-2.5-1.2-3.3-1.9c-0.9,0.7-2.1,1.3-3.8,1.9c-0.1-0.1-0.2-0.3-0.4-0.6c1.6-0.6,2.9-1.2,3.7-1.8c-0.8-0.8-1.5-2.1-2-3.8
		h-0.6V179.9z M113.4,179.9h-4c0.5,1.5,1.1,2.6,1.9,3.4C112.1,182.4,112.8,181.3,113.4,179.9z"/>
	<path class="st5" d="M116.1,184.6c-0.2-0.3-0.4-0.4-0.5-0.6c2.2-1.4,3.8-3.4,4.7-5.8h-4.5v-0.6h5.1v-2.9h0.6v2.9h5.2v0.6h-4.6
		c1,2.3,2.6,4.2,4.8,5.6c-0.2,0.2-0.3,0.4-0.5,0.6c-2.3-1.5-3.9-3.6-4.8-6.2h-0.1v7.8h-0.6v-7.8h-0.1
		C120,180.9,118.4,183,116.1,184.6z M122.9,175.5l0.4-0.4c0.7,0.6,1.4,1.1,2,1.6l-0.5,0.5C124.4,176.8,123.8,176.2,122.9,175.5z"/>
	<path class="st5" d="M103.8,195.4c-0.1-0.2-0.2-0.5-0.3-0.7c1.1-1.5,2-3.4,2.7-5.5l0.6,0.2c-0.3,1-0.7,1.9-1.1,2.8v8.3h-0.6v-7
		C104.7,194.1,104.3,194.8,103.8,195.4z M106.6,198.4c-0.1-0.1-0.3-0.3-0.5-0.5c1.8-1.6,3-3.5,3.6-5.7h-2.8v-0.6h3.4v-2.4h0.6v2.4
		h3.6v0.6h-3.1c0.7,2.3,1.9,4.1,3.6,5.5c-0.2,0.2-0.3,0.4-0.5,0.5c-1.7-1.6-2.9-3.6-3.6-6h-0.1v5.2h2v0.6h-2v2.5h-0.6V198h-2v-0.6h2
		v-5.2l0,0C109.5,194.7,108.3,196.8,106.6,198.4z"/>
	<path class="st5" d="M118.5,197.1l0.5,0.4c-1,0.8-1.9,1.6-2.9,2.3c-0.1-0.1-0.3-0.3-0.5-0.5C116.7,198.7,117.7,197.9,118.5,197.1z
		 M126,197L126,197c-0.4-0.4-0.7-0.6-0.9-0.8c-0.8,0-1.9,0.1-3.4,0.1v2.5c0,0.9-0.4,1.4-1.3,1.4c-0.2,0-0.7,0-1.4,0
		c0-0.3-0.1-0.5-0.2-0.7c0.4,0,0.8,0,1.4,0c0.6,0,0.9-0.3,0.9-0.9v-2.4c-0.9,0-2.1,0.1-3.4,0.1c-0.3,0-0.6,0-0.9,0.1h-0.1l-0.3-0.6
		c0.4-0.1,0.8-0.2,1.2-0.4c1.2-0.5,2.4-1.2,3.7-1.9c-1.1,0-2.2,0.1-3.5,0.1c0,0-0.1,0-0.2,0c-0.3,0-0.5,0-0.6,0.1l-0.3-0.6
		c0.3-0.1,0.6-0.2,0.9-0.4c1.1-0.6,2.2-1.3,3.3-2.1c-1.8,0.1-3.3,0.2-4.5,0.2c0-0.2-0.1-0.4-0.1-0.6c3.6-0.1,6.8-0.3,9.7-0.6
		l0.2,0.6c-1.5,0.1-3.2,0.2-5,0.3l0.5,0.4c-1,0.7-2.2,1.4-3.6,2.1c0.8,0,2.1,0,3.9-0.1c0.1,0,0.2,0,0.2,0c0.9-0.6,1.7-1.1,2.3-1.5
		l0.6,0.5c-2.3,1.5-4.7,2.7-7.1,3.9c2.5,0,4.7-0.1,6.5-0.2c-0.1-0.1-0.3-0.3-0.6-0.5c-0.4-0.4-0.7-0.7-0.9-0.8l0.4-0.4
		c0.9,0.8,2,1.7,3,2.6L126,197z M123.2,197.6l0.5-0.4c1.1,0.7,2.1,1.4,3,2.1l-0.5,0.5C125,198.9,124,198.1,123.2,197.6z"/>
</g>
<g class="st4">
	<path class="st5" d="M262.7,290.5h1.9c0.1-0.2,0.3-0.5,0.5-0.8c0,0,0,0,0-0.1l0.6,0.2c-0.1,0.2-0.3,0.5-0.4,0.7h2.9
		c-0.2,1.1-0.6,2-1.3,2.6c0.5,0.2,0.9,0.4,1.3,0.6l-0.4,0.5c-0.5-0.2-0.9-0.5-1.4-0.7c-0.9,0.6-2,1.1-3.4,1.5
		c-0.1-0.2-0.2-0.4-0.3-0.6c1.3-0.3,2.4-0.7,3.2-1.2c-0.6-0.3-1.4-0.6-2.3-1.1c0.3-0.4,0.6-0.8,0.8-1.1h-1.6v-0.5H262.7z
		 M265.6,283.8h0.6v2.6h2.4v0.5h-2.4v1l0.3-0.3c0.6,0.4,1.2,0.8,1.9,1.2l-0.4,0.5c-0.3-0.2-0.9-0.6-1.8-1.2v1.2h-0.6v-1.8
		c-0.6,0.8-1.4,1.5-2.5,2c-0.1-0.2-0.2-0.3-0.4-0.5c1.1-0.5,2-1.1,2.8-2.1h-2.6v-0.5h2.8L265.6,283.8L265.6,283.8z M263.2,284.6
		l0.4-0.3c0.6,0.6,1.1,1.1,1.4,1.4l-0.5,0.4C264.3,285.8,263.8,285.3,263.2,284.6z M264.3,291.9c0.7,0.3,1.4,0.6,2,0.8
		c0.6-0.5,1-1.1,1.2-1.8H265C264.8,291.3,264.6,291.6,264.3,291.9z M268.6,284.6c-0.5,0.6-1,1-1.4,1.4l-0.4-0.4
		c0.4-0.4,0.9-0.8,1.4-1.4L268.6,284.6z M268,294.6c1.2-0.9,2.1-1.8,2.7-2.6c-0.6-1-1-2.4-1.2-4.2c0,0-0.1,0.1-0.1,0.2
		c-0.2,0.4-0.4,0.7-0.5,0.8c-0.2-0.2-0.3-0.3-0.5-0.4c0.9-1.3,1.6-3,2-4.9l0.6,0.1c-0.2,0.7-0.4,1.4-0.7,2.1h3.5v0.6h-1
		c-0.2,2.5-0.7,4.4-1.5,5.6c0.5,0.8,1.4,1.6,2.5,2.4c-0.2,0.2-0.3,0.4-0.4,0.5c-1.1-0.8-1.9-1.6-2.4-2.4c-0.6,0.8-1.4,1.6-2.6,2.5
		C268.3,294.9,268.2,294.7,268,294.6z M269.8,286.9c0.2,2,0.6,3.5,1.2,4.4c0.6-1.1,1-2.7,1.2-5H270C270,286.5,270,286.7,269.8,286.9
		z"/>
	<path class="st5" d="M274.7,290.7l-0.1-0.7c0.3-0.1,0.9-0.3,1.6-0.5v-3h-1.5v-0.6h1.5v-2.3h0.6v2.3h1.3v0.6h-1.3v2.8
		c0.3-0.1,0.7-0.2,1.2-0.4c0,0.2,0,0.4,0,0.6c-0.1,0-0.4,0.1-0.8,0.3c-0.2,0.1-0.3,0.1-0.4,0.1v3.6c0,0.8-0.3,1.2-1.1,1.2
		c-0.3,0-0.6,0-0.9,0c0-0.2-0.1-0.4-0.1-0.7c0.4,0,0.7,0,0.9,0c0.3,0,0.4,0,0.5-0.1c0.1-0.1,0.1-0.3,0.1-0.5V290
		c-0.3,0.1-0.7,0.2-1.2,0.4C274.8,290.6,274.7,290.7,274.7,290.7z M282.2,287.8h0.6v1.2h3.1v0.6h-3.1v1.6h2.4v3.8h-0.6v-0.7h-4.2
		v0.7h-0.6v-3.8h2.4v-1.6h-2.9c0,2.2-0.6,4.1-1.6,5.4c-0.1-0.1-0.3-0.3-0.5-0.4c0.6-0.8,1-1.6,1.2-2.5c0.2-0.9,0.3-2,0.3-3.6v-4.1
		h6.6v2.9h-6v1.2v0.5h2.9V287.8z M279.3,285v1.8h5.4V285H279.3z M280.5,291.7v2h4.2v-2H280.5z"/>
	<path class="st5" d="M266.3,303.3c0.6,1.2,1.3,2.2,2,2.9c0.7-0.6,1.4-1.6,2-3l0.6,0.3c-0.6,1.4-1.3,2.4-2.1,3.1
		c1.1,0.8,2.7,1.5,5,2c-0.1,0.2-0.2,0.4-0.4,0.7c-2.4-0.6-4.1-1.4-5.1-2.2c-1,0.8-2.7,1.6-5.2,2.3l-0.4-0.7c2.4-0.6,4.1-1.3,5-2.1
		c-0.7-0.7-1.4-1.7-2.1-3L266.3,303.3z M262.8,299.9h5.5c-0.2-0.5-0.5-1-0.8-1.5l0.6-0.3c0.3,0.5,0.6,1,0.9,1.5l-0.6,0.3h5.3v0.6
		h-10.9V299.9z M266.4,301.2l0.5,0.5c-1.1,0.9-2.3,1.8-3.6,2.7c-0.1-0.2-0.2-0.4-0.4-0.6C264.2,303,265.3,302.2,266.4,301.2z
		 M273.1,304.1c-1-0.8-2.2-1.6-3.5-2.4l0.4-0.5c1.1,0.7,2.3,1.5,3.5,2.3L273.1,304.1z"/>
	<path class="st5" d="M276.2,305.7l1-6h-1.9v-0.6h10v0.6h-7.4l-0.3,2h6.4l-0.4,6.3h2.3v0.6H275V308h8l0.2-2.2L276.2,305.7
		L276.2,305.7z M283.2,302.3h-5.8l-0.5,2.8h6L283.2,302.3z"/>
</g>
<g class="st4">
	<path class="st5" d="M137.4,290.5h1.9c0.1-0.2,0.3-0.5,0.5-0.8c0,0,0,0,0-0.1l0.6,0.2c-0.1,0.2-0.3,0.5-0.4,0.7h2.9
		c-0.2,1.1-0.6,2-1.3,2.6c0.5,0.2,0.9,0.4,1.3,0.6l-0.4,0.5c-0.5-0.2-0.9-0.5-1.4-0.7c-0.9,0.6-2,1.1-3.4,1.5
		c-0.1-0.2-0.2-0.4-0.3-0.6c1.3-0.3,2.4-0.7,3.2-1.2c-0.6-0.3-1.4-0.6-2.3-1.1c0.3-0.4,0.6-0.8,0.8-1.1h-1.6v-0.5H137.4z
		 M140.2,283.8h0.6v2.6h2.4v0.5h-2.4v1l0.3-0.3c0.6,0.4,1.2,0.8,1.9,1.2l-0.4,0.5c-0.3-0.2-0.9-0.6-1.8-1.2v1.2h-0.6v-1.8
		c-0.6,0.8-1.4,1.5-2.5,2c-0.1-0.2-0.2-0.3-0.4-0.5c1.1-0.5,2-1.1,2.8-2.1h-2.6v-0.5h2.8v-2.6H140.2z M137.8,284.6l0.4-0.3
		c0.6,0.6,1.1,1.1,1.4,1.4l-0.5,0.4C138.9,285.8,138.5,285.3,137.8,284.6z M138.9,291.9c0.7,0.3,1.4,0.6,2,0.8
		c0.6-0.5,1-1.1,1.2-1.8h-2.5C139.4,291.3,139.2,291.6,138.9,291.9z M143.2,284.6c-0.5,0.6-1,1-1.4,1.4l-0.4-0.4
		c0.4-0.4,0.9-0.8,1.4-1.4L143.2,284.6z M142.7,294.6c1.2-0.9,2.1-1.8,2.7-2.6c-0.6-1-1-2.4-1.2-4.2c0,0-0.1,0.1-0.1,0.2
		c-0.2,0.4-0.4,0.7-0.5,0.8c-0.2-0.2-0.3-0.3-0.5-0.4c0.9-1.3,1.6-3,2-4.9l0.6,0.1c-0.2,0.7-0.4,1.4-0.7,2.1h3.5v0.6h-1
		c-0.2,2.5-0.7,4.4-1.5,5.6c0.5,0.8,1.4,1.6,2.5,2.4c-0.2,0.2-0.3,0.4-0.4,0.5c-1.1-0.8-1.9-1.6-2.4-2.4c-0.6,0.8-1.4,1.6-2.6,2.5
		C143,294.9,142.8,294.7,142.7,294.6z M144.5,286.9c0.2,2,0.6,3.5,1.2,4.4c0.6-1.1,1-2.7,1.2-5h-2.2
		C144.7,286.5,144.6,286.7,144.5,286.9z"/>
	<path class="st5" d="M154.7,289.8l2.7-1.6h-6v-0.6h6.8v0.7l-2.9,1.8v0.6h5.2v0.6h-5.2v2.1c0.1,0.9-0.4,1.4-1.4,1.5
		c-0.7,0-1.2,0-1.5,0c0-0.2-0.1-0.4-0.1-0.7c0.2,0,0.4,0,0.6,0c0.1,0,0.2,0,0.4,0c0.1,0,0.3,0,0.5,0c0.4,0,0.6-0.1,0.7-0.2
		c0.1-0.1,0.2-0.4,0.2-0.7v-2h-5.4v-0.6h5.4V289.8z M149.7,285.5h10.5v2.1h-0.6v-1.5h-9.3v1.5h-0.6V285.5z M154.4,283.8l0.6-0.2
		c0.2,0.4,0.4,0.9,0.7,1.6l-0.6,0.2C154.8,284.8,154.6,284.3,154.4,283.8z"/>
	<path class="st5" d="M139.3,306.9c0.3-0.3,0.8-0.8,1.4-1.4c0,0.3,0.1,0.5,0.2,0.7c-0.7,0.7-1.4,1.4-2,2.1l-0.5-0.5
		c0.1-0.2,0.2-0.4,0.3-0.5c0-0.2,0.1-0.4,0.1-0.7v-3.9h-1.4v-0.6h2.1v4.8H139.3z M138.6,298.5c0.5,0.4,1,1,1.7,1.8l-0.5,0.4
		c-0.4-0.5-1-1.1-1.7-1.8L138.6,298.5z M140.9,299.4v-0.6h7.6v0.6h-3.2v3.7h2.7v0.6h-2.7v4.4h3.3v0.6h-8.4v-0.6h1.6v-6.5h0.6v6.5
		h2.2v-8.7H140.9z"/>
	<path class="st5" d="M153.8,298.2h0.7v2.2h4.1l-0.2,3.4h1.7c0,1.1-0.1,2.1-0.2,2.8c-0.1,1-0.7,1.5-1.9,1.5c-0.2,0-0.5,0-0.7,0
		c-0.1,0-0.2,0-0.4,0c-0.1,0-0.3,0-0.6,0c0-0.2-0.1-0.4-0.2-0.7c0.5,0,1.1,0,1.6,0c0.9,0,1.4-0.3,1.4-1c0.1-0.6,0.1-1.3,0.1-2.1
		h-4.9v5.1h-0.7v-5.1h-4.4v-0.6h4.4V301h-3.7v-0.6h3.7v-2.2H153.8z M157.9,300.9h-3.4v2.7h3.2L157.9,300.9z M157.4,298.9l0.4-0.5
		c0.8,0.6,1.7,1.1,2.5,1.7l-0.4,0.5C159,300.1,158.2,299.5,157.4,298.9z"/>
</g>
<circle class="st6" cx="246.7" cy="40.6" r="23"/>
<circle class="st6" cx="176.7" cy="40.6" r="23"/>
<g>
	<path d="M163.7,31.9h8.1v0.5h-3.2c-1.2,1.9-2.8,3.5-4.8,4.8c-0.1-0.1-0.2-0.3-0.4-0.4c2-1.3,3.6-2.8,4.5-4.4h-4.3v-0.5H163.7z
		 M167.4,34.1h0.5v5.6h-0.5V34.1z M171.5,37c-1.1-0.7-2-1.4-3-2l0.3-0.4c0.9,0.6,1.9,1.2,3,1.9L171.5,37z"/>
	<path d="M172.6,35.8c-0.1-0.1-0.1-0.3-0.3-0.5c0.8-1.2,1.5-2.6,1.9-4.2l0.5,0.1c-0.3,0.8-0.5,1.5-0.7,2v6.2h-0.5v-5
		C173.2,34.9,172.9,35.4,172.6,35.8z M174.8,39.1c-0.1-0.1-0.2-0.3-0.3-0.4c1.2-0.6,2.1-1.5,2.7-2.5h-2.5v-0.4h2.9v-1h0.5v1h2.9v0.4
		h-2.5c0.6,1,1.4,1.8,2.6,2.3c-0.1,0.1-0.2,0.2-0.3,0.4c-1.2-0.7-2.1-1.5-2.6-2.6v3.3h-0.5v-3.3C176.9,37.5,176,38.5,174.8,39.1z
		 M175.4,31.6h4.7v2.8h-4.7V31.6z M175.9,32.1V34h3.7v-1.9H175.9z"/>
	<path d="M184.5,31.1l0.5,0.1c-0.1,0.3-0.2,0.6-0.4,0.9h5.2v0.5h-5.4c-0.4,0.8-0.8,1.5-1.2,2.2v4.9h-0.5v-4.3
		c-0.3,0.4-0.7,0.9-1.1,1.3c-0.1-0.1-0.2-0.3-0.3-0.4c1.1-1.1,1.9-2.4,2.6-3.8h-2.3V32h2.5C184.3,31.8,184.4,31.4,184.5,31.1z
		 M186.9,35.5l1.8-1.3h-4.2v-0.4h4.8v0.5l-2,1.5v0.4h2.6v0.5h-2.6v2c0,0.7-0.3,1-1,1c-0.2,0-0.3,0-0.5,0c-0.1,0-0.2,0-0.2,0
		c-0.1,0-0.2,0-0.4,0c0-0.2-0.1-0.3-0.1-0.5c0.4,0,0.8,0,1.1,0c0.4,0,0.6-0.2,0.6-0.5v-2h-3v-0.5h3v-0.7H186.9z"/>
	<path d="M163.6,50.3h-0.5v-2.8h-2.8c-0.1,1.1-0.4,2-1,2.9c-0.1-0.1-0.3-0.2-0.5-0.3c0.4-0.7,0.7-1.3,0.9-1.8
		c0.1-0.6,0.2-1.5,0.2-2.7v-3.1h7v6.8c0,0.7-0.3,1.1-1.1,1.1c-0.2,0-0.3,0-0.5,0c-0.1,0-0.2,0-0.2,0c-0.1,0-0.2,0-0.3,0
		c0-0.2,0-0.3-0.1-0.5c0.3,0,0.7,0,1,0c0.5,0,0.7-0.2,0.7-0.6v-1.7h-2.8L163.6,50.3L163.6,50.3z M160.4,45.6c0,0.4,0,0.9,0,1.5h2.7
		v-1.9h-2.7V45.6z M160.4,42.9v1.9h2.7v-1.9H160.4z M166.4,42.9h-2.8v1.9h2.8V42.9z M163.6,45.2v1.9h2.8v-1.9H163.6z"/>
	<path d="M171.7,42.2l0.4-0.2c0.3,0.4,0.5,0.8,0.7,1.1l-0.4,0.2h3.2V47h-0.5v-0.4h-5.8c0,1.5-0.4,2.8-1.2,3.9
		c-0.1-0.1-0.3-0.2-0.4-0.3c0.4-0.6,0.7-1.3,0.9-1.8c0.1-0.6,0.2-1.4,0.2-2.5v-2.5h3.5C172.2,42.9,172,42.6,171.7,42.2z M169.5,43.7
		v2v0.4h5.7v-2.4H169.5z"/>
	<path d="M177.1,46.6c-0.1-0.2-0.1-0.4-0.2-0.5c0.8-1.2,1.5-2.6,1.9-4.1l0.5,0.1c-0.2,0.7-0.5,1.4-0.8,2v6.3H178v-5.3
		C177.7,45.7,177.4,46.2,177.1,46.6z M181.9,42.1l0.4-0.2c0.2,0.3,0.3,0.7,0.5,1l-0.4,0.2h3v0.4h-6v-0.4h2.9
		C182.1,42.7,182,42.4,181.9,42.1z M179.9,44.6h5V45h-5V44.6z M179.9,46h5v0.4h-5V46z M180,47.4h4.8v3h-0.5v-0.5h-3.9v0.5h-0.5v-3
		H180z M180.4,47.9v1.6h3.9v-1.6H180.4z"/>
	<path d="M186.6,47.9l0.5,0.2c-0.3,0.7-0.5,1.3-0.8,1.8l-0.4-0.2C186.1,49.1,186.4,48.5,186.6,47.9z M187,42.8h2.2
		c0.1-0.3,0.2-0.6,0.2-0.9l0.5,0.1v0.1c-0.1,0.3-0.2,0.6-0.2,0.7h3.5v4.3h-6.1v-4.3H187z M187.5,43.2v0.9h5.2v-0.9H187.5z
		 M187.5,44.5v0.9h5.2v-0.9H187.5z M187.5,45.9v0.9h5.2v-0.9H187.5z M188,47.9h0.5v1.2c0,0.3,0.1,0.5,0.2,0.6s0.3,0.2,0.6,0.1h1.9
		c0.5,0,0.8-0.2,0.9-0.5c0.1-0.2,0.1-0.5,0.2-0.9c0.2,0.1,0.4,0.1,0.5,0.2c-0.1,0.4-0.1,0.6-0.2,0.8c-0.1,0.6-0.6,0.9-1.3,0.9h-2
		c-0.8,0-1.2-0.3-1.2-1.1v-1.3H188z M189.5,47.8l0.3-0.3c0.4,0.3,0.7,0.7,1,1.1l-0.4,0.3C190.2,48.4,189.8,48.1,189.5,47.8z
		 M193,48.1l0.4-0.3c0.4,0.4,0.8,0.9,1.2,1.3l-0.4,0.3C193.7,48.9,193.3,48.5,193,48.1z"/>
</g>
<g>
	<path d="M240.5,37.8l0.3,0.4c-0.8,0.4-1.7,0.7-2.6,1.1c-0.1-0.1-0.1-0.3-0.2-0.4C238.9,38.6,239.7,38.2,240.5,37.8z M238.5,31.5
		h0.4v2.7h-0.4V31.5z M245.5,37.7c-0.1-0.1-0.3-0.2-0.5-0.4c-0.1,0-0.1-0.1-0.2-0.1c-1,0-1.7,0-2.2,0.1v1.1c0,0.7-0.3,1.1-1,1.1
		c-0.1,0-0.3,0-0.4,0s-0.2,0-0.2,0c-0.1,0-0.2,0-0.3,0c0-0.2-0.1-0.3-0.1-0.5c0.3,0,0.6,0,0.9,0s0.5,0,0.6-0.1s0.2-0.3,0.2-0.5v-1.1
		c-0.6,0-1.4,0-2.3,0.1c-0.1,0-0.3,0-0.3,0c-0.3,0-0.5,0-0.8,0.1l-0.2-0.5c0.4-0.1,0.7-0.2,1.1-0.3c0.6-0.2,1.4-0.5,2.3-0.9
		c-1,0-1.7,0-2.2,0.1c-0.2,0-0.4,0-0.6,0.1l-0.2-0.5c0.2,0,0.5-0.1,0.8-0.3c0.7-0.3,1.4-0.6,2.1-1l0.4,0.3c-0.7,0.3-1.5,0.6-2.3,0.9
		c0.5,0,1.3,0,2.3,0c0.2,0,0.4,0,0.5,0c0.6-0.3,1.1-0.5,1.5-0.7l0.4,0.4c-1.8,0.8-3.5,1.4-4.9,2c1,0,2.4-0.1,4.4-0.1
		c-0.1-0.1-0.3-0.2-0.6-0.4c-0.1-0.1-0.3-0.2-0.3-0.2l0.3-0.3c0.8,0.5,1.5,0.9,2.2,1.4L245.5,37.7z M240.2,31.3h0.4v2.9h-0.4V31.3z
		 M241.5,32v-0.4h4V32c-0.4,0.6-1,1-1.6,1.3c0.6,0.3,1.4,0.5,2.4,0.6c-0.1,0.1-0.2,0.3-0.2,0.4c-1.2-0.2-2.1-0.5-2.7-0.8
		c-0.5,0.2-1.1,0.4-1.9,0.6c-0.1-0.2-0.1-0.3-0.2-0.4c0.7-0.1,1.3-0.3,1.7-0.5c-0.4-0.3-0.8-0.8-1.2-1.3h-0.3V32z M245,32h-2.7
		c0.3,0.5,0.7,0.9,1.1,1.1C244,32.9,244.5,32.5,245,32z M246.1,39.3c-0.8-0.4-1.7-0.8-2.6-1.2l0.3-0.4c0.9,0.4,1.8,0.8,2.6,1.2
		L246.1,39.3z"/>
	<path d="M247.3,34c-0.1-0.1-0.2-0.2-0.3-0.4c1.1-0.8,1.9-1.6,2.6-2.6l0.5,0.2c-0.1,0.2-0.3,0.4-0.5,0.7h3.4v0.5l-0.9,1h2.4v3.2
		h-6.6v-0.4h6.2v-1h-5.9v-0.4h5.9v-1h-5.8v-0.4h3.3l0.9-1h-3.2C248.7,32.9,248.1,33.5,247.3,34z M247.8,37.1l0.5,0.2
		c-0.2,0.7-0.5,1.3-0.8,1.9l0,0c-0.2-0.1-0.3-0.2-0.4-0.2C247.3,38.4,247.5,37.7,247.8,37.1z M249.1,37.1h0.5v1.3
		c0,0.2,0.1,0.4,0.2,0.5s0.3,0.1,0.6,0.1h1.7c0.5,0,0.8-0.2,0.9-0.6c0-0.2,0.1-0.5,0.1-0.8c0.2,0.1,0.3,0.1,0.5,0.2
		c0,0.3-0.1,0.6-0.2,0.9c-0.1,0.5-0.5,0.8-1.2,0.8h-2c-0.7,0-1.1-0.3-1.1-1V37.1z M250.6,36.9l0.4-0.3c0.4,0.4,0.7,0.8,1,1.1
		l-0.4,0.3C251.3,37.7,250.9,37.3,250.6,36.9z M254,37.4l0.4-0.3c0.4,0.5,0.7,1,1.1,1.5l-0.4,0.3C254.7,38.4,254.3,37.8,254,37.4z"
		/>
	<path d="M238.1,46.6c-0.1-0.1-0.1-0.3-0.3-0.5c0.8-1.2,1.5-2.6,1.9-4.2l0.5,0.1c-0.3,0.8-0.5,1.5-0.7,2v6.2H239V45
		C238.7,45.7,238.5,46.2,238.1,46.6z M240.3,49.9c-0.1-0.1-0.2-0.3-0.3-0.4c1.2-0.6,2.1-1.5,2.7-2.5h-2.5v-0.4h2.9v-1h0.5v1h2.9V47
		H244c0.6,1,1.4,1.8,2.6,2.3c-0.1,0.1-0.2,0.2-0.3,0.4c-1.2-0.7-2.1-1.5-2.6-2.6v3.3h-0.5v-3.3C242.4,48.3,241.5,49.3,240.3,49.9z
		 M240.9,42.4h4.7v2.8h-4.7V42.4z M241.4,42.9v1.9h3.7v-1.9H241.4z"/>
	<path d="M246.9,47.1l-0.1-0.5c0.1,0,0.4-0.1,0.7-0.2c0.3-0.1,0.5-0.1,0.6-0.2V44h-1.2v-0.4h1.2v-1.7h0.5v1.7h1.1V44h-1.1v2.1
		c0.1,0,0.2,0,0.3-0.1c0.4-0.1,0.7-0.2,0.9-0.3c0,0.1,0,0.2,0,0.2c0,0.1,0,0.2,0,0.3c-0.1,0-0.4,0.1-0.7,0.2
		c-0.2,0.1-0.4,0.1-0.5,0.1v2.7c0,0.6-0.3,1-0.9,0.9c-0.1,0-0.4,0-0.7,0c0-0.2-0.1-0.4-0.1-0.5c0.2,0,0.4,0,0.7,0
		c0.2,0,0.3,0,0.4-0.1s0.1-0.2,0.1-0.4v-2.6C247.8,46.9,247.3,47,246.9,47.1z M252,42.2l0.4-0.2c0.2,0.3,0.5,0.7,0.7,1.1l-0.4,0.2
		h2.2v3.8h-0.5v-0.4h-3.6c0,1.5-0.4,2.7-1.2,3.8c-0.1-0.1-0.2-0.2-0.4-0.3c0.5-0.7,0.8-1.3,0.9-1.9c0.2-0.6,0.2-1.5,0.2-2.7v-2.2
		h2.3C252.4,42.9,252.2,42.5,252,42.2z M250.9,43.8v1.7c0,0.1,0,0.2,0,0.4c0,0.1,0,0.3,0,0.3h3.6v-2.4H250.9z"/>
</g>
<circle class="st6" cx="372" cy="140.5" r="23"/>
<g>
	<path d="M361.3,131.7v4.6h1.1v0.4h-1.1v1.8h-0.4v-1.8h-3.2v-0.4c0.3-0.3,0.6-0.7,0.9-1.1c0.3-0.4,0.6-0.8,0.9-1.2s0.5-0.8,0.8-1.2
		s0.4-0.8,0.6-1.1H361.3z M358.1,136.4h2.7v-3.9c-0.2,0.4-0.5,0.8-0.7,1.2s-0.5,0.7-0.7,1.1c-0.2,0.3-0.5,0.6-0.7,0.9
		C358.5,135.9,358.3,136.2,358.1,136.4z"/>
	<path d="M365,138.7c-0.6,0-1.1-0.3-1.5-0.9c-0.4-0.6-0.5-1.4-0.5-2.5c0-1.2,0.2-2.1,0.6-2.7c0.4-0.6,0.9-0.9,1.6-0.9
		c1.3,0,2,1.2,2,3.5c0,1.2-0.2,2-0.6,2.6C366.2,138.4,365.7,138.7,365,138.7z M365.1,132c-0.5,0-0.9,0.3-1.2,0.8
		c-0.3,0.5-0.4,1.3-0.4,2.4c0,1,0.1,1.7,0.4,2.2s0.7,0.8,1.2,0.8s0.9-0.3,1.2-0.8s0.4-1.3,0.4-2.3C366.7,133.1,366.1,132,365.1,132z
		"/>
	<path d="M368.4,138.5V138c0.4,0.2,0.7,0.3,1,0.3c0.7,0,1.3-0.3,1.6-0.9c0.4-0.6,0.6-1.4,0.6-2.5l0,0c-0.3,0.7-0.9,1.1-1.7,1.1
		c-0.3,0-0.5-0.1-0.8-0.2c-0.2-0.1-0.4-0.2-0.6-0.4s-0.3-0.4-0.4-0.7c-0.1-0.3-0.1-0.5-0.1-0.8s0.1-0.6,0.2-0.9
		c0.1-0.3,0.2-0.5,0.4-0.7s0.4-0.3,0.7-0.5c0.3-0.1,0.5-0.2,0.8-0.2s0.6,0.1,0.8,0.2c0.2,0.1,0.5,0.3,0.6,0.6c0.1,0.3,0.3,0.6,0.4,1
		c0.1,0.4,0.1,0.8,0.1,1.3c0,0.6-0.1,1.2-0.2,1.7c-0.1,0.5-0.3,0.9-0.5,1.2s-0.5,0.6-0.8,0.8s-0.7,0.3-1.2,0.3
		C369.1,138.7,368.7,138.6,368.4,138.5z M370,132c-0.2,0-0.4,0-0.6,0.1s-0.3,0.2-0.5,0.4c-0.1,0.2-0.2,0.3-0.3,0.6
		c-0.1,0.2-0.1,0.4-0.1,0.7s0,0.5,0.1,0.7c0.1,0.2,0.2,0.4,0.3,0.6c0.1,0.2,0.3,0.3,0.5,0.4s0.4,0.1,0.6,0.1s0.4,0,0.6-0.1
		s0.3-0.2,0.5-0.3c0.1-0.1,0.2-0.3,0.3-0.5s0.1-0.4,0.1-0.6c0-0.3,0-0.6-0.1-0.8c-0.1-0.2-0.2-0.5-0.3-0.6s-0.3-0.3-0.5-0.4
		C370.5,132.1,370.3,132,370,132z"/>
	<path d="M376.8,131.8v0.5c-0.3-0.2-0.7-0.2-1-0.2s-0.6,0.1-0.9,0.2c-0.3,0.2-0.5,0.4-0.7,0.7s-0.3,0.7-0.4,1.1
		c-0.1,0.4-0.2,0.9-0.2,1.4l0,0c0.3-0.8,0.9-1.1,1.7-1.1c0.3,0,0.5,0.1,0.8,0.2s0.4,0.3,0.6,0.4c0.2,0.2,0.3,0.4,0.4,0.7
		c0.1,0.3,0.1,0.5,0.1,0.8s0,0.6-0.1,0.9c-0.1,0.3-0.2,0.5-0.4,0.7c-0.2,0.2-0.4,0.4-0.6,0.5s-0.5,0.2-0.8,0.2s-0.6-0.1-0.8-0.2
		c-0.2-0.1-0.5-0.3-0.6-0.6c-0.2-0.3-0.3-0.6-0.4-1c-0.1-0.4-0.1-0.8-0.1-1.3c0-0.6,0.1-1.1,0.2-1.6c0.1-0.5,0.3-0.9,0.5-1.2
		s0.5-0.6,0.8-0.8s0.7-0.3,1.1-0.3C376.2,131.6,376.5,131.7,376.8,131.8z M375.2,134.7c-0.2,0-0.4,0-0.6,0.1s-0.4,0.2-0.5,0.4
		c-0.1,0.2-0.2,0.3-0.3,0.5s-0.1,0.4-0.1,0.6c0,0.3,0,0.5,0.1,0.7c0.1,0.2,0.2,0.4,0.3,0.6c0.1,0.2,0.3,0.3,0.5,0.4s0.4,0.2,0.6,0.2
		s0.4,0,0.6-0.1s0.3-0.2,0.5-0.4c0.1-0.2,0.2-0.3,0.3-0.6c0.1-0.2,0.1-0.5,0.1-0.7c0-0.3,0-0.5-0.1-0.7c-0.1-0.2-0.2-0.4-0.3-0.6
		c-0.1-0.2-0.3-0.3-0.5-0.4S375.5,134.7,375.2,134.7z"/>
	<path d="M378,135.9c-0.1-0.2-0.2-0.4-0.3-0.5c0.8-1.1,1.5-2.5,2-4.2l0.5,0.2c-0.2,0.7-0.5,1.3-0.7,1.8v6.5H379v-5.5
		C378.7,134.8,378.4,135.4,378,135.9z M385,133.9l0.5,0.2c-0.7,1.9-1.2,3.4-1.7,4.6h2.5v0.5h-6.2v-0.5h3.1
		C383.9,137.2,384.5,135.6,385,133.9z M380.4,132.8h5.7v0.5h-5.7V132.8z M382.1,137.8c-0.3-1.2-0.7-2.5-1.2-3.7l0.5-0.1
		c0.4,1.1,0.8,2.3,1.2,3.7L382.1,137.8z M382.7,131.3l0.4-0.2c0.3,0.6,0.5,1.1,0.6,1.4l-0.5,0.2
		C383.1,132.2,382.9,131.7,382.7,131.3z"/>
	<path d="M363.4,147.6c-0.1-0.2-0.1-0.3-0.2-0.4c0.8-0.2,1.6-0.5,2.4-0.8v-0.2v-1.8h0.4v1.7v0.1c1.3-0.6,2.6-1.3,3.7-2.1l0.3,0.4
		c-1.2,0.8-2.6,1.6-4,2.2c0.1,0.2,0.3,0.3,0.8,0.3h1.7c0.4,0,0.7-0.2,0.7-0.5c0-0.2,0.1-0.4,0.1-0.7c0.1,0.1,0.3,0.1,0.5,0.2
		c0,0.3-0.1,0.5-0.2,0.8c-0.1,0.5-0.5,0.7-1.1,0.7h-1.9c-0.6,0-0.9-0.2-1-0.6C365.1,147,364.3,147.3,363.4,147.6z M367,142.1
		l0.5-0.1c0.1,0.2,0.2,0.5,0.3,0.9h3.6v1.4h-0.5v-0.9h-7v0.9h-0.5v-1.4h3.8C367.2,142.6,367.1,142.3,367,142.1z M364.5,144.5
		l0.4,0.2c-0.3,0.6-0.6,1.1-0.8,1.6c-0.1-0.1-0.2-0.1-0.4-0.2C364,145.5,364.3,145,364.5,144.5z M367.2,147.6h0.5v2h2.5v-1.7h0.5
		v2.5h-0.5V150h-5.9v-2.1h0.5v1.7h2.5L367.2,147.6L367.2,147.6z M366.7,143.9l0.3-0.3c0.3,0.3,0.7,0.6,1,0.9l-0.3,0.3
		C367.4,144.5,367.1,144.2,366.7,143.9z M370.2,145l0.4-0.2c0.3,0.4,0.7,0.8,1.1,1.3l-0.4,0.3C370.9,145.9,370.5,145.4,370.2,145z"
		/>
	<path d="M372.4,145c-0.1-0.1-0.1-0.2-0.2-0.4c0,0,0,0,0-0.1c0.6-0.6,1.1-1.5,1.5-2.6l0.4,0.1c-0.2,0.4-0.3,0.8-0.5,1.1h1.8v0.4h-2
		C373.1,144.1,372.8,144.5,372.4,145z M372.3,146.4h1.3v-1.2H373v-0.4h2.2v0.4h-1.1v1.2h1.5v0.4h-1.5v2.1c0.4-0.4,0.8-0.8,1.1-1.1
		c0.1,0.2,0.1,0.3,0.2,0.5c-0.2,0.2-0.7,0.6-1.3,1.2c-0.1,0.1-0.2,0.2-0.3,0.3l-0.4-0.4c0.2-0.1,0.2-0.4,0.2-0.7v-2h-1.3V146.4z
		 M379,149.8c0.3,0,0.5,0,0.6-0.1c0.1-0.1,0.2-0.3,0.2-0.5v-1.8h-3.2c-0.1,1.1-0.5,2.1-1.3,3c-0.1-0.1-0.2-0.2-0.4-0.3
		c0.6-0.6,0.9-1.2,1.1-1.8s0.3-1.5,0.3-2.9v-3h4v6.8c0,0.7-0.3,1.1-1.1,1.1c-0.2,0-0.4,0-0.6,0c-0.1,0-0.2,0-0.3,0
		c-0.1,0-0.2,0-0.3,0c0-0.2-0.1-0.4-0.1-0.5C378.1,149.8,378.5,149.8,379,149.8z M376.7,145.4c0,0.6,0,1.1,0,1.6h3.1v-1.9h-3.1
		V145.4z M376.7,142.9v1.8h3.1v-1.8H376.7z"/>
</g>
<circle class="st6" cx="391.7" cy="208.6" r="23"/>
<g>
	<path d="M380.9,199.4v2.6h2.5v0.5h-2.5v4c0.7-0.4,1.5-0.7,2.4-1.1c0,0.2,0,0.4,0,0.6c-0.8,0.3-1.5,0.7-2.2,1
		c-0.2,0.1-0.4,0.2-0.6,0.4l-0.4-0.4c0.2-0.2,0.3-0.4,0.2-0.7v-6.9H380.9z M384.2,199.2h0.5v3.8c1.2-0.8,2.2-1.7,2.9-2.6l0.4,0.3
		c-1,1.1-2.1,2.1-3.4,2.9v2.6c0,0.5,0.3,0.8,0.8,0.7h1.2c0.5,0,0.8-0.2,0.9-0.7c0.1-0.4,0.1-0.8,0.2-1.2c0.2,0.1,0.4,0.1,0.5,0.1
		c-0.1,0.5-0.1,1-0.2,1.3c-0.1,0.6-0.5,0.9-1.2,0.9h-1.5c-0.8,0-1.2-0.3-1.1-1.1V199.2z"/>
	<path d="M394,203.8c0,1.9-0.8,2.8-2.4,2.8c-1.5,0-2.3-0.9-2.3-2.7v-4.2h0.5v4.1c0,1.6,0.6,2.4,1.9,2.4c1.2,0,1.9-0.8,1.9-2.3v-4.2
		h0.5v4.1H394z"/>
	<path d="M397.5,202.7h2.2v-1h-3.3v1c0,1.3-0.1,2.3-0.2,2.9c-0.1,0.6-0.4,1.3-0.8,2c-0.1-0.1-0.2-0.2-0.4-0.3
		c0.4-0.6,0.6-1.2,0.7-1.8c0.1-0.6,0.2-1.5,0.2-2.7V200c2.4,0,4.7-0.1,6.9-0.3l0.1,0.4c-0.7,0.1-1.6,0.1-2.8,0.2v1.1h3.4v0.4h-3.4v1
		h2.5v5h-0.5v-0.5h-4.3v0.5h-0.5v-5.1H397.5z M396.4,200.3v0.9h3.3v-1c-0.1,0-0.3,0-0.5,0C398,200.2,397,200.3,396.4,200.3z
		 M397.9,203.1v0.9h4.3v-0.9H397.9z M397.9,204.4v0.9h4.3v-0.9H397.9z M397.9,205.8v0.9h4.3v-0.9H397.9z"/>
	<path d="M384.2,210.1l0.5-0.1c0.1,0.3,0.2,0.6,0.2,0.9h3.9v0.4h-8.5v-0.4h4.1C384.4,210.7,384.3,210.4,384.2,210.1z M381.3,218.4
		h-0.5v-4h7.5v2.9c0,0.7-0.3,1-1,1c-0.3,0-0.7,0-1.1,0c0-0.2-0.1-0.3-0.1-0.5c0.3,0,0.6,0,1,0c0.3,0,0.4,0,0.5-0.1
		c0.1-0.1,0.1-0.2,0.1-0.5v-2.5h-6.4V218.4z M381.8,212h5.5v1.7h-5.5V212z M382.3,212.4v0.9h4.6v-0.9H382.3z M382.7,215.6h3.8v1.8
		h-3.8V215.6z M383.1,216v1h2.9v-1H383.1z"/>
	<path d="M393,210.5v4.6h1.1v0.4H393v1.8h-0.4v-1.8h-3.3v-0.4c0.3-0.3,0.6-0.7,0.9-1.1s0.6-0.8,0.9-1.2c0.3-0.4,0.5-0.8,0.8-1.2
		s0.4-0.8,0.6-1.1L393,210.5L393,210.5z M389.8,215.2h2.7v-3.9c-0.2,0.4-0.5,0.8-0.7,1.2c-0.2,0.4-0.5,0.7-0.7,1.1
		c-0.2,0.3-0.5,0.6-0.7,0.9C390.2,214.7,390,215,389.8,215.2z"/>
	<path d="M394.6,214.7c0-0.1-0.1-0.3-0.2-0.5c0.8-1.2,1.5-2.6,1.9-4.1l0.5,0.1c-0.3,0.8-0.6,1.5-0.8,2.1v6.1h-0.5v-5.2
		C395.2,213.7,394.9,214.2,394.6,214.7z M396.8,213.6h6.2v0.4h-6.2V213.6z M397.1,211.3h5.6v0.4h-5.6V211.3z M397.6,215h4.6v3.4
		h-0.5v-0.6H398v0.6h-0.5L397.6,215L397.6,215z M397.9,212.2l0.4-0.3c0.3,0.3,0.6,0.8,0.9,1.2l-0.4,0.3
		C398.5,212.9,398.2,212.5,397.9,212.2z M398.1,215.5v2h3.7v-2H398.1z M399.3,210.2l0.4-0.2c0.2,0.3,0.5,0.7,0.7,1l-0.4,0.2
		C399.8,210.9,399.6,210.5,399.3,210.2z M401,213.4l-0.4-0.3c0.3-0.4,0.6-0.8,0.9-1.3l0.4,0.2C401.7,212.5,401.4,213,401,213.4z"/>
</g>
<circle class="st6" cx="48" cy="140.5" r="23"/>
<g>
	<path d="M29.5,136.8v2.7H29v-6.8h1.6c0.7,0,1.2,0.2,1.6,0.5s0.6,0.8,0.6,1.4c0,0.6-0.2,1.2-0.6,1.6c-0.4,0.4-1,0.6-1.7,0.6H29.5z
		 M29.5,133.2v3.2h1c0.6,0,1.1-0.1,1.4-0.4c0.3-0.3,0.5-0.7,0.5-1.2c0-1-0.6-1.5-1.8-1.5h-1.1V133.2z"/>
	<path d="M37.8,139.5l-2.9-3.3c-0.1-0.1-0.1-0.1-0.1-0.2l0,0v3.4h-0.5v-6.8h0.5v3.2l0,0c0-0.1,0.1-0.1,0.1-0.2l2.8-3h0.6l-3,3.3
		l3.2,3.5h-0.7V139.5z"/>
	<path d="M39.5,139.5v-6.8H40v6.8H39.5z"/>
	<path d="M41.3,133.6H44v-1.4h0.5v8.4H44v-1.9h-2.9v-0.4H44v-1.9h-2.6V136H44v-1.9h-2.7V133.6z M46.1,132.2h0.5v1.4h2.7v0.5h-2.7
		v1.9h2.6v0.4h-2.6v1.9h2.9v0.4h-2.9v1.9h-0.5V132.2z"/>
	<path d="M50.7,134.5c0.4,0.6,0.9,1.3,1.5,2.2c0.4-0.9,0.6-1.9,0.8-3.1h-2.8v-0.5h3.3v0.5c-0.2,1.4-0.5,2.5-0.9,3.5
		c0.2,0.2,0.4,0.6,0.7,1c0.3,0.5,0.5,0.8,0.7,1l-0.4,0.3c-0.4-0.6-0.8-1.2-1.2-1.8c-0.4,0.9-1.1,1.7-2,2.6c-0.1-0.1-0.2-0.3-0.4-0.4
		c0.9-0.8,1.6-1.7,2-2.7c-0.4-0.5-0.7-1.1-1-1.6s-0.5-0.8-0.6-1H50.7z M54.1,134.1H57v-1.9h0.5v1.9h1.1v0.5h-1.1v4.6
		c0,0.9-0.4,1.3-1.2,1.3c-0.3,0-0.6,0-1.2,0c0-0.1,0-0.3-0.1-0.5c0.4,0,0.7,0,1.1,0c0.3,0,0.6-0.1,0.7-0.2c0.1-0.1,0.2-0.3,0.2-0.7
		v-4.5h-2.9V134.1z M54.3,135.8l0.4-0.2c0.4,0.6,0.8,1.2,1.1,1.9l-0.5,0.2C55.1,137.2,54.7,136.5,54.3,135.8z"/>
	<path d="M59.1,134.8h1.5v-1.5c-0.3,0-0.8,0.1-1.3,0.1c0-0.1-0.1-0.3-0.1-0.4c1-0.1,2-0.2,3-0.3l0.1,0.4h-0.1
		c-0.5,0.1-0.8,0.1-1.1,0.1v1.6h1.1v0.4h-1.1v1l0.2-0.2c0.4,0.3,0.8,0.7,1.1,1l-0.3,0.3c-0.5-0.5-0.8-0.8-1-1v4.3h-0.5v-4.5
		c-0.3,1.1-0.8,2-1.3,2.7c-0.1-0.1-0.1-0.3-0.2-0.5c0.7-1,1.2-2,1.5-3.1h-1.4L59.1,134.8L59.1,134.8z M63.2,136l0.4,0.1
		c-0.4,1.1-0.8,2.1-1.2,3.1l-0.5-0.2C62.4,138.1,62.9,137.1,63.2,136z M62.6,135.4c-0.1-0.1-0.2-0.2-0.4-0.3c0.7-0.9,1.2-1.9,1.5-3
		l0.5,0.1c-0.2,0.5-0.4,0.9-0.5,1.2h3.6v0.5l-0.6,1.4c-0.1-0.1-0.3-0.1-0.4-0.2l0.6-1.3h-3.4C63.2,134.4,63,134.9,62.6,135.4z
		 M64.5,134.5H65v5c0,0.7-0.3,1-1,1c-0.1,0-0.2,0-0.4,0c-0.1,0-0.1,0-0.2,0c-0.1,0-0.1,0-0.2,0c0-0.1,0-0.3-0.1-0.5
		c0.2,0,0.5,0,0.8,0c0.4,0,0.6-0.2,0.6-0.5L64.5,134.5L64.5,134.5z M65.7,136.1l0.4-0.2c0.4,0.8,0.9,1.8,1.4,3l-0.5,0.2
		C66.6,138.1,66.2,137.1,65.7,136.1z"/>
	<path d="M31.7,143h0.5c0,0.3,0,0.9,0,1.6h2c0,2-0.1,3.7-0.1,5.3c0,0.9-0.4,1.3-1.2,1.3c-0.1,0-0.3,0-0.4,0s-0.1,0-0.2,0
		s-0.2,0-0.3,0c0-0.1,0-0.3-0.1-0.5c0.3,0,0.6,0,0.9,0c0.5,0,0.8-0.2,0.8-0.8c0.1-1.5,0.1-3.1,0.1-4.8h-1.5c0,0.2,0,0.4,0,0.5
		c0,2.7-0.5,4.6-1.6,5.9c-0.1-0.1-0.3-0.2-0.4-0.3c1-1.2,1.5-3.1,1.5-5.6c0,0,0-0.1,0-0.2c0-0.1,0-0.2,0-0.2h-1.2v-0.5h1.3
		c0-0.2,0-0.4,0-0.7c0-0.1,0-0.3,0-0.4C31.7,143.4,31.7,143.2,31.7,143z M35.2,144.1h3.1v7.1h-0.5v-0.9h-2.1v0.9h-0.5V144.1z
		 M35.7,144.6v5.3h2.1v-5.3H35.7z"/>
	<path d="M39.4,148.6c-0.1-0.2-0.1-0.3-0.2-0.4c0.8-0.2,1.6-0.5,2.4-0.8v-0.2v-1.8H42v1.7v0.1c1.3-0.6,2.6-1.3,3.7-2.1l0.3,0.4
		c-1.2,0.8-2.6,1.6-4,2.2c0.1,0.2,0.3,0.3,0.8,0.3h1.7c0.4,0,0.7-0.2,0.7-0.5c0-0.2,0.1-0.4,0.1-0.7c0.1,0.1,0.3,0.1,0.5,0.2
		c0,0.3-0.1,0.5-0.2,0.8c-0.1,0.5-0.5,0.7-1.1,0.7h-1.9c-0.6,0-0.9-0.2-1-0.6C41.1,148,40.3,148.3,39.4,148.6z M43,143.1l0.5-0.1
		c0.1,0.2,0.2,0.5,0.3,0.9h3.6v1.4h-0.5v-0.9h-7v0.9h-0.5v-1.4h3.8C43.2,143.6,43.1,143.3,43,143.1z M40.5,145.5l0.4,0.2
		c-0.3,0.6-0.6,1.1-0.8,1.6c-0.1-0.1-0.2-0.1-0.4-0.2C40,146.5,40.3,146,40.5,145.5z M43.2,148.6h0.5v2h2.5v-1.7h0.5v2.5h-0.5V151
		h-5.9v-2.1h0.5v1.7h2.5v-2H43.2z M42.7,144.9l0.3-0.3c0.3,0.3,0.7,0.6,1,0.9l-0.3,0.3C43.4,145.5,43.1,145.2,42.7,144.9z M46.2,146
		l0.4-0.2c0.3,0.4,0.7,0.8,1.1,1.3l-0.4,0.3C46.9,146.9,46.5,146.4,46.2,146z"/>
	<path d="M49.9,142.9l0.4,0.1c-0.1,0.2-0.2,0.4-0.4,0.7h2.6v0.4h-2.8c-0.3,0.5-0.7,0.9-1.2,1.3c-0.1-0.1-0.2-0.2-0.4-0.3
		C49,144.5,49.5,143.8,49.9,142.9z M54.1,149h0.5v0.6h2.2v0.4h-2.2v1.4h-0.5V150h-3c-0.1,0.7-0.8,1.2-2,1.5
		c-0.1-0.1-0.2-0.3-0.3-0.4c1-0.3,1.6-0.6,1.8-1.1h-2.3v-0.4h2.4l0,0c0-0.2,0-0.4,0-0.5h0.5c0,0.2,0,0.4,0,0.6h2.9L54.1,149
		L54.1,149z M49.3,145.2h6.3v3.5h-6.3V145.2z M49.8,145.6v0.7h5.4v-0.7H49.8z M49.8,146.6v0.7h5.4v-0.7H49.8z M49.8,147.7v0.7h5.4
		v-0.7H49.8z M51.1,145.1c-0.2-0.3-0.4-0.5-0.7-0.7l0.3-0.2c0.2,0.2,0.5,0.5,0.7,0.7L51.1,145.1z M53.6,142.9L54,143
		c-0.1,0.2-0.2,0.4-0.3,0.6v0.1h2.9v0.4h-3.2c-0.2,0.3-0.5,0.6-0.8,1c-0.1-0.1-0.2-0.2-0.4-0.3C52.9,144.2,53.3,143.6,53.6,142.9z
		 M55.1,144.8l-0.3,0.3c-0.2-0.3-0.4-0.5-0.6-0.7l0.3-0.2C54.7,144.3,54.9,144.6,55.1,144.8z"/>
	<path d="M58.6,146.9c-0.4-0.4-0.9-0.8-1.4-1.1l0.3-0.3c0.5,0.4,1,0.7,1.4,1.1L58.6,146.9z M57.4,151.2c0.4-1,0.8-2.1,1.1-3.2
		c0.2,0.1,0.3,0.2,0.5,0.2c-0.3,0.8-0.6,1.9-1,3.2L57.4,151.2z M58.9,144.7c-0.5-0.5-0.9-0.9-1.3-1.2l0.4-0.3
		c0.4,0.3,0.9,0.7,1.4,1.2L58.9,144.7z M59.5,147.1h2.9v-2H60v-0.5h2.4v-1.7h0.5v1.7h2.5v0.5h-2.5v2h2.9v0.4h-3.6l0.5,0.2
		c-0.6,0.9-1.3,1.8-2.1,2.7c0.1,0,0.3,0,0.6,0c1.5-0.1,2.6-0.1,3.2-0.1c-0.3-0.4-0.7-0.9-1.1-1.5l0.4-0.3c0.5,0.6,1.1,1.4,1.9,2.5
		l-0.4,0.3c-0.2-0.2-0.3-0.4-0.4-0.6c-1.3,0-2.5,0.1-3.8,0.2c-0.4,0-0.7,0-0.9,0.1l-0.3-0.5c0.2-0.1,0.4-0.3,0.7-0.5
		c0.7-0.7,1.2-1.5,1.7-2.4h-2.6L59.5,147.1L59.5,147.1z"/>
</g>
<circle class="st6" cx="31.7" cy="208.6" r="23"/>
<g>
	<path d="M22.1,202.3c-1.7-0.6-3-1.5-3.9-2.6c-1,1.1-2.3,2-4,2.7c-0.1-0.1-0.2-0.2-0.3-0.4c2-0.8,3.4-1.8,4.2-3l0.5,0.1
		c0,0,0,0.1-0.1,0.1c0,0.1-0.1,0.1-0.1,0.1c1,1.1,2.3,1.9,3.9,2.5C22.2,202.1,22.2,202.2,22.1,202.3z M15.4,202h5.4v0.4h-2.4v1.4
		h3.2v0.4h-3.2v2.5h3.7v0.5h-8v-0.5h3.7v-2.3h-3.2V204h3.2v-1.4h-2.5V202H15.4z M15.2,205.1l0.4-0.3c0.4,0.4,0.8,0.8,1.2,1.2
		l-0.5,0.4C16.1,206,15.7,205.6,15.2,205.1z M19.8,206.4l-0.4-0.3c0.4-0.4,0.8-0.8,1.3-1.2l0.4,0.3C20.7,205.6,20.2,206,19.8,206.4z
		"/>
	<path d="M23.1,199.6h4.3v0.4h-4.3V199.6z M23.7,207.5h-0.4v-4.3h4v3.5c0,0.5-0.2,0.8-0.8,0.8c-0.2,0-0.4,0-0.5,0
		c0-0.1-0.1-0.3-0.1-0.4c0.1,0,0.3,0,0.6,0c0.2,0,0.3,0,0.3-0.1c0.1-0.1,0.1-0.2,0.1-0.4v-3h-3.1L23.7,207.5L23.7,207.5z
		 M23.6,200.7h3.3v1.8h-3.3V200.7z M24,205.2h1.3c0.2-0.4,0.4-0.9,0.6-1.4l0.4,0.2c0,0.1-0.1,0.1-0.1,0.3c-0.2,0.5-0.4,0.8-0.5,1
		h0.7v0.4h-1v1.7H25v-1.7h-1V205.2z M24,201.1v1h2.4v-1H24z M24.1,204l0.4-0.2c0.2,0.3,0.4,0.7,0.6,1.1l-0.4,0.2
		c-0.1-0.2-0.3-0.5-0.5-1C24.1,204.1,24.1,204,24.1,204z M27.6,207.4l-0.1-0.5c0.4,0,1-0.1,1.7-0.1v-2.4h-0.9v0.7h-0.4v-4.3h1.3
		v-1.6h0.4v1.6h1.3v3.6h-1.3v2.4c0.5,0,0.8-0.1,1.1-0.1c-0.1-0.5-0.2-0.9-0.4-1.4l0.4-0.1c0.3,0.9,0.5,1.7,0.6,2.4l-0.4,0.1
		c0-0.1,0-0.2-0.1-0.4c0-0.1,0-0.1,0-0.2C29.3,207.2,28.2,207.3,27.6,207.4z M28.3,201.2v2.8h0.9v-2.8H28.3z M30.6,201.2h-0.9v2.8
		h0.9V201.2z"/>
	<path d="M32,205.7h4.2v-1.4h-3.1v-0.5c0.4-0.5,0.8-1.1,1.2-1.8h-2v-0.5h2.3c0.2-0.3,0.4-0.7,0.7-1.2l0.5,0.1c0,0.1-0.1,0.2-0.2,0.4
		c-0.2,0.3-0.3,0.6-0.4,0.7h5v0.5H35c-0.3,0.5-0.7,1.1-1.2,1.9h2.6v-1.3h0.5v1.3h2.9v0.4h-2.9v1.4h3.7v0.4h-3.7v1.5h-0.5v-1.5h-4.2
		v-0.4H32z M32.3,199.6H40v1.4h-0.5v-0.9h-6.8v0.9h-0.4V199.6z"/>
	<path d="M41,206.5h3.9v-6.1h-3.4v-0.5h7.3v0.5h-3.4v6.1h3.9v0.5H41V206.5z"/>
	<path d="M14.5,218.4c-0.1-0.2-0.2-0.4-0.3-0.5c1.5-0.2,2.7-0.6,3.7-1.2c-0.2-0.1-0.4-0.2-0.7-0.3c-0.7-0.3-1.3-0.6-1.7-0.8
		c0.3-0.5,0.6-0.9,0.9-1.4H14v-0.5h2.7c0.3-0.5,0.6-1.1,0.8-1.6l0.5,0.2c-0.3,0.6-0.6,1.1-0.8,1.4h5.3v0.5h-1.8
		c-0.4,1-0.9,1.8-1.7,2.4c1.3,0.6,2.2,1,2.9,1.3l-0.3,0.5c-1.3-0.6-2.3-1.1-3-1.4C17.5,217.6,16.2,218.1,14.5,218.4z M17.7,210.2
		l0.4-0.2c0.2,0.3,0.5,0.7,0.7,1.1l-0.4,0.2h3.5v1.5h-0.5v-1h-6.6v1h-0.5v-1.5h4C18.1,210.9,17.9,210.5,17.7,210.2z M16.1,215.4
		c0.1,0.1,0.3,0.1,0.6,0.3c0.7,0.3,1.3,0.6,1.7,0.7c0.8-0.6,1.3-1.3,1.7-2.2h-3.2C16.7,214.5,16.4,214.9,16.1,215.4z"/>
	<path d="M31.1,213.6c-1.8-0.8-3.1-1.8-3.9-3c-1,1.2-2.3,2.3-4,3.1c-0.1-0.2-0.3-0.3-0.3-0.4c1.9-1,3.3-2.1,4.2-3.4l0.5,0.1
		c0,0,0,0-0.1,0.1c0,0.1-0.1,0.1-0.1,0.1c0.9,1.2,2.3,2.2,3.9,2.9C31.3,213.2,31.2,213.4,31.1,213.6z M24.4,213.3H30v0.5h-2.5v1.6
		h2.9v0.5h-2.9v1.7h3.6v0.5h-7.8v-0.5h3.6v-1.7H24v-0.5h2.9v-1.6h-2.5V213.3z"/>
	<path d="M32.7,214.9c0.7-0.1,1.3-0.1,1.8-0.2c0,0.2-0.1,0.3-0.1,0.4c-1,0.1-1.8,0.1-2.3,0.2l-0.2-0.5c0.2-0.1,0.4-0.3,0.6-0.6
		c0.3-0.3,0.5-0.7,0.9-1.2c-0.6,0-1.1,0-1.4,0.1l-0.2-0.5c0.2-0.1,0.3-0.3,0.5-0.6c0.5-0.7,0.8-1.4,1.1-2l0.5,0.2
		c-0.5,0.9-1,1.7-1.5,2.5h0.1c0.5,0,0.9,0,1.2,0c0.2-0.3,0.4-0.7,0.7-1.2l0.5,0.2C34.3,212.7,33.6,213.8,32.7,214.9z M32,217.4
		l-0.1-0.5c0.7-0.1,1.6-0.3,2.6-0.5c0,0.1,0,0.3,0,0.5C33.7,217.1,32.9,217.2,32,217.4z M34.1,218c0.7-0.8,1.1-1.6,1.3-2.4
		c0.2-0.8,0.3-2.1,0.3-3.8V211h-0.8v-0.4h4.2v0.5l-0.9,2h1.6v0.4c-0.4,1.2-0.9,2.2-1.4,3c0.5,0.5,1.2,1,2,1.5
		c-0.1,0.1-0.2,0.3-0.3,0.5c-0.8-0.5-1.5-1.1-2-1.6c-0.6,0.6-1.3,1.2-2.1,1.7c-0.1-0.1-0.2-0.3-0.4-0.4c0.9-0.5,1.6-1.1,2.1-1.6
		c-0.7-0.8-1.2-1.8-1.6-3.1c0,2.1-0.6,3.7-1.7,5C34.4,218.2,34.3,218.1,34.1,218z M37.8,212.9l0.9-2h-2.5v0.8v0.5
		c0.5,1.7,1.1,2.9,1.9,3.8c0.5-0.7,0.9-1.5,1.3-2.6h-1.6L37.8,212.9L37.8,212.9z"/>
	<path d="M41.2,214.5h1.5c0-0.3,0-0.6,0-0.9h0.5c0,0.2,0,0.5,0,0.9h2.3c0,0.8,0,1.6-0.1,2.5c0,0.9-0.4,1.3-1.3,1.3
		c-0.2,0-0.3,0-0.5,0c-0.1,0-0.2,0-0.3,0s-0.2,0-0.3,0c0-0.2,0-0.4-0.1-0.5c0.3,0,0.6,0,1,0c0.6,0,0.9-0.2,0.9-0.9
		c0-0.7,0.1-1.4,0.1-2h-1.8c0,1.5-0.6,2.7-1.8,3.5c-0.1-0.1-0.3-0.2-0.4-0.4c1.2-0.8,1.8-1.8,1.7-3.2h-1.4L41.2,214.5L41.2,214.5z
		 M41.5,210.5h3.8v2.8h-3.8V210.5z M42,210.9v1.9h2.8v-1.9H42z M48.4,210h0.5v7.2c0,0.7-0.3,1.1-1.1,1.1c-0.2,0-0.3,0-0.5,0
		c-0.1,0-0.2,0-0.3,0s-0.2,0-0.4,0c0-0.2-0.1-0.4-0.1-0.5c0.2,0,0.6,0,1.1,0c0.3,0,0.5,0,0.6-0.1s0.2-0.3,0.2-0.5V210z M46.6,210.9
		h0.5v5.4h-0.5V210.9z"/>
</g>
<circle class="st6" cx="65" cy="321.8" r="23"/>
<g>
	<path d="M56.5,313.2h8.1v0.5h-3.3c-1.2,1.9-2.8,3.5-4.8,4.8c-0.1-0.1-0.2-0.3-0.4-0.4c2-1.3,3.6-2.8,4.5-4.4h-4.3v-0.5H56.5z
		 M60.2,315.4h0.5v5.6h-0.5V315.4z M64.3,318.3c-1.1-0.7-2-1.4-3-2l0.3-0.4c0.9,0.6,1.9,1.2,3,1.9L64.3,318.3z"/>
	<path d="M65.2,313.2h8.5v0.5h-1.5v6c0,0.7-0.4,1.1-1.1,1.1c-0.2,0-0.3,0-0.5,0c-0.1,0-0.2,0-0.3,0s-0.3,0-0.5,0
		c0-0.2,0-0.3-0.1-0.5c0.2,0,0.4,0,0.6,0c0.1,0,0.2,0,0.3,0s0.2,0,0.4,0c0.3,0,0.5-0.1,0.6-0.2c0.1-0.1,0.2-0.3,0.2-0.6v-5.9h-6.5
		L65.2,313.2L65.2,313.2z M66.2,315.1h3.7v3.5h-3.2v0.7h-0.5V315.1z M66.7,315.6v2.6h2.7v-2.6H66.7z"/>
	<path d="M56.5,326c-0.1-0.1-0.2-0.3-0.3-0.4c0.8-0.6,1.5-1.5,2.1-2.4l0.5,0.1c-0.1,0.2-0.3,0.4-0.4,0.6h6.2v0.4h-6.5
		C57.7,325,57.1,325.5,56.5,326z M64.4,331.6c-1.5-0.2-2.7-0.5-3.7-0.9c-1.1,0.4-2.3,0.7-3.8,1c-0.1-0.2-0.1-0.3-0.2-0.4
		c1.2-0.2,2.4-0.5,3.4-0.8c-0.7-0.3-1.3-0.7-1.8-1.2c-0.5,0.4-1.1,0.9-1.8,1.2c-0.1-0.1-0.2-0.3-0.3-0.4c1.1-0.6,2-1.3,2.7-2.2
		l0.5,0.1c-0.2,0.2-0.3,0.4-0.5,0.6h4.7v0.4c-0.7,0.5-1.4,1-2.3,1.3c0.9,0.3,2,0.5,3.3,0.6C64.5,331.4,64.5,331.5,64.4,331.6z
		 M57.5,325.1h6.2v2.8h-6.2V325.1z M58,325.5v0.8h5.3v-0.8H58z M58,326.7v0.8h5.3v-0.8H58z M63,329.2h-4.3c0.6,0.5,1.3,0.9,2,1.2
		C61.6,330,62.3,329.6,63,329.2z"/>
	<path d="M65.2,326.5h2.5v-1.4h-1.4c-0.1,0.3-0.3,0.6-0.5,1c-0.1-0.1-0.2-0.2-0.4-0.2c0.4-0.7,0.8-1.4,0.9-2.2l0.4,0.1
		c0,0,0,0,0,0.1c-0.1,0.4-0.2,0.7-0.3,0.9h1.3v-1.3h0.5v1.3h1.9v0.4h-1.9v1.4h2.3v0.4h-2.3v1.2h1.9v2c0,0.6-0.2,0.8-0.8,0.8
		c-0.1,0-0.2,0-0.3,0c0,0-0.1,0-0.2,0c0,0-0.1,0-0.2,0c0-0.1-0.1-0.3-0.1-0.5c0.2,0,0.4,0,0.6,0c0.2,0,0.3,0,0.4-0.1
		c0.1-0.1,0.1-0.2,0.1-0.4v-1.6h-1.5v3.3h-0.5v-3.3h-1.3v2.6h-0.4v-3h1.9v-1.2h-2.5v-0.3H65.2z M72.8,323.3h0.5v7.2
		c0,0.7-0.3,1.1-1,1.1c-0.2,0-0.3,0-0.5,0c-0.1,0-0.2,0-0.3,0s-0.2,0-0.3,0c0-0.2-0.1-0.3-0.1-0.5c0.4,0,0.7,0,1.1,0
		c0.2,0,0.4,0,0.5-0.1c0.1-0.1,0.1-0.3,0.1-0.5V323.3z M71.5,329.4H71v-5.2h0.5V329.4z"/>
</g>
<circle class="st6" cx="360.3" cy="321.8" r="23"/>
<g>
	<path d="M344.8,317.3c-0.1-0.1-0.2-0.3-0.3-0.4c1.7-0.7,2.9-1.6,3.6-2.7h-3.5v-0.5h3.9v-0.8h0.5v0.8h3.9v0.5h-3.5
		c0.8,1.2,2,2,3.6,2.6c-0.1,0.1-0.2,0.3-0.3,0.4c-1.8-0.7-3-1.6-3.7-2.9v3.7h-0.5v-3.7C347.7,315.6,346.5,316.6,344.8,317.3z
		 M352.4,310.3c-1.9,0.1-4.3,0.2-7.2,0.2c0-0.1,0-0.2-0.1-0.4l0,0c2.8,0,5.2-0.1,7.2-0.2L352.4,310.3z M345.4,311.4l0.4-0.3
		c0.5,0.6,0.9,1.1,1.2,1.6l-0.4,0.3C346.2,312.5,345.8,312,345.4,311.4z M348.1,310.9l0.4-0.2c0.2,0.4,0.4,1,0.7,1.6l-0.5,0.2
		C348.7,312.1,348.4,311.5,348.1,310.9z M350.7,313l-0.4-0.3c0.6-0.7,1.1-1.3,1.5-1.9l0.4,0.2C351.8,311.7,351.3,312.4,350.7,313z"
		/>
	<path d="M358.2,317.8h-0.5V315h-2.8c-0.1,1.1-0.4,2-1,2.9c-0.1-0.1-0.3-0.2-0.5-0.3c0.4-0.7,0.7-1.3,0.9-1.8
		c0.1-0.6,0.2-1.5,0.2-2.7V310h7v6.8c0,0.7-0.3,1.1-1.1,1.1c-0.2,0-0.3,0-0.5,0c-0.1,0-0.2,0-0.2,0c-0.1,0-0.2,0-0.3,0
		c0-0.2,0-0.3-0.1-0.5c0.3,0,0.7,0,1,0c0.5,0,0.7-0.2,0.7-0.6v-1.7h-2.8V317.8L358.2,317.8z M355,313.1c0,0.4,0,0.9,0,1.5h2.7v-1.9
		H355V313.1z M355,310.4v1.9h2.7v-1.9H355z M361,310.4h-2.8v1.9h2.8V310.4z M358.2,312.7v1.9h2.8v-1.9H358.2z"/>
	<path d="M362.9,316.6v-0.5c0.5,0.3,1,0.5,1.5,0.5s0.9-0.1,1.2-0.3c0.3-0.2,0.4-0.5,0.4-0.9c0-0.3-0.1-0.6-0.3-0.8
		c-0.2-0.2-0.6-0.5-1.2-0.8c-0.7-0.4-1.1-0.7-1.3-1s-0.3-0.6-0.3-0.9c0-0.5,0.2-0.9,0.6-1.2c0.4-0.3,0.9-0.5,1.5-0.5
		c0.4,0,0.8,0.1,1.2,0.2v0.5c-0.4-0.2-0.8-0.3-1.3-0.3s-0.8,0.1-1.1,0.3c-0.3,0.2-0.4,0.5-0.4,0.9c0,0.3,0.1,0.6,0.3,0.8
		s0.6,0.5,1.2,0.8c0.6,0.4,1.1,0.7,1.3,1s0.3,0.6,0.3,1c0,0.5-0.2,0.9-0.5,1.3c-0.4,0.3-0.9,0.5-1.5,0.5c-0.2,0-0.5,0-0.8-0.1
		C363.3,316.8,363.1,316.7,362.9,316.6z"/>
	<path d="M367.7,316.6v-0.5c0.5,0.3,1,0.5,1.5,0.5s0.9-0.1,1.2-0.3c0.3-0.2,0.4-0.5,0.4-0.9c0-0.3-0.1-0.6-0.3-0.8
		c-0.2-0.2-0.6-0.5-1.2-0.8c-0.7-0.4-1.1-0.7-1.3-1s-0.3-0.6-0.3-0.9c0-0.5,0.2-0.9,0.6-1.2c0.4-0.3,0.9-0.5,1.5-0.5
		c0.4,0,0.8,0.1,1.2,0.2v0.5c-0.4-0.2-0.8-0.3-1.3-0.3s-0.8,0.1-1.1,0.3c-0.3,0.2-0.4,0.5-0.4,0.9c0,0.3,0.1,0.6,0.3,0.8
		s0.6,0.5,1.2,0.8c0.6,0.4,1.1,0.7,1.3,1s0.3,0.6,0.3,1c0,0.5-0.2,0.9-0.5,1.3c-0.4,0.3-0.9,0.5-1.5,0.5c-0.2,0-0.5,0-0.8-0.1
		C368.1,316.8,367.9,316.7,367.7,316.6z"/>
	<path d="M372.8,316.8V310h0.5v6.4h2.7v0.4H372.8z"/>
	<path d="M347.1,321.6h0.9c0.1-0.4,0.2-0.8,0.3-1.3l0.4,0.1c-0.1,0.2-0.1,0.5-0.3,1c0,0.1-0.1,0.2-0.1,0.3h1.6v0.4h-1.6
		c-0.2,0.7-0.4,1.5-0.7,2.4h1v-1.4h0.4v1.4h0.8v0.4H349v1.6h0.1c0.4,0,0.6-0.1,0.8-0.1c0,0.2,0,0.3,0,0.4c-0.1,0-0.2,0-0.4,0.1
		c-0.2,0-0.4,0.1-0.5,0.1v1.9h-0.4V327c-0.4,0.1-0.9,0.1-1.4,0.2l-0.1-0.4c0.2,0,0.4-0.1,0.7-0.1s0.6-0.1,0.8-0.1V325h-1.4v-0.6
		c0.2-0.7,0.5-1.5,0.7-2.4h-0.8L347.1,321.6L347.1,321.6z M355.3,323.1c-1.2-0.6-2.1-1.3-2.7-2.2c-0.6,0.9-1.5,1.6-2.6,2.3
		c-0.1-0.1-0.2-0.2-0.3-0.4c1.3-0.7,2.3-1.6,2.9-2.7l0.5,0.1c0,0,0,0.1-0.1,0.1c0,0.1-0.1,0.1-0.1,0.2c0.7,1,1.6,1.7,2.7,2.1
		C355.5,322.8,355.4,322.9,355.3,323.1z M350.7,328.7h-0.4v-5h2.2v4.1c0,0.5-0.2,0.8-0.8,0.8c-0.1,0-0.2,0-0.3,0h-0.1
		c0,0-0.1,0-0.2,0c0-0.1,0-0.3-0.1-0.4c0.1,0,0.2,0,0.2,0h0.1c0,0,0.1,0,0.2,0c0.3,0,0.4-0.1,0.4-0.4v-1h-1.3L350.7,328.7
		L350.7,328.7z M350.7,324.1v0.9h1.3v-0.9H350.7z M350.7,325.4v0.9h1.3v-0.9H350.7z M351.2,322.5h2.8v0.4h-2.8V322.5z M353.3,324
		h0.4v3.1h-0.4V324z M354.6,323.6h0.4v4.1c0,0.7-0.3,1-1,1c-0.1,0-0.2,0-0.3,0c-0.1,0-0.1,0-0.2,0c0,0-0.1,0-0.2,0
		c0-0.1,0-0.3-0.1-0.5c0.1,0,0.2,0,0.3,0c0.1,0,0.1,0,0.2,0c0.1,0,0.1,0,0.3,0c0.2,0,0.4,0,0.4-0.1c0.1-0.1,0.1-0.2,0.1-0.5v-4
		H354.6z"/>
	<path d="M359.8,327.9c0.5,0,1.3,0,2.3,0s1.8,0,2.5,0c-0.1,0.2-0.2,0.4-0.2,0.5c-2.4,0-4,0-4.8,0c-0.9,0-1.7-0.4-2.2-1.1
		c-0.4,0.4-0.8,0.8-1.1,1.2l-0.3-0.4c0.3-0.3,0.7-0.7,1.2-1.2v-3.1h-1.1v-0.4h1.5v3.5C358.2,327.6,358.9,328,359.8,327.9z
		 M357.9,322.3c-0.3-0.4-0.8-0.8-1.3-1.4l0.4-0.3c0.5,0.5,1,0.9,1.4,1.4L357.9,322.3z M359.5,321.6l0.3-0.3c0,0,0.1,0.1,0.2,0.1
		c0.6,0.3,1,0.6,1.3,0.7l1.9-1h-4.5v-0.4h5.2v0.5l-2.2,1.2l0,0c0.1,0.1,0.2,0.1,0.2,0.1h2v3.8c0,0.6-0.3,1-1,1c-0.1,0-0.3,0-0.4,0
		c-0.1,0-0.1,0-0.2,0c0,0-0.1,0-0.2,0c0-0.2,0-0.3-0.1-0.5c0.2,0,0.5,0,0.7,0s0.4,0,0.5-0.1c0.1-0.1,0.1-0.3,0.1-0.6v-0.4h-1.8v1.3
		H361v-1.3h-1.7v1.5h-0.5v-4.8h2.3c-0.3-0.2-0.8-0.4-1.4-0.8C359.6,321.7,359.5,321.7,359.5,321.6z M359.3,323v1h1.8v-1H359.3z
		 M359.3,324.4v1h1.8v-1H359.3z M363.5,323h-1.8v1h1.8V323z M361.6,324.4v1h1.8v-1H361.6z"/>
	<path d="M368.8,328.1c0.4,0,0.8,0,1.2,0s0.8,0,1.2,0c0.8,0,1.6,0,2.4,0c-0.1,0.1-0.1,0.3-0.2,0.5c-1.3,0-2.3,0-2.9,0
		c-0.7,0-1.3,0-1.7,0c-1.1,0-1.9-0.3-2.4-1.1c-0.3,0.3-0.6,0.7-1,1.2l-0.3-0.4c0.4-0.5,0.8-0.9,1.1-1.2V324h-1v-0.6h1.5v3.6
		C367,327.7,367.7,328.1,368.8,328.1z M366.4,322.2c-0.4-0.5-0.7-1-1.1-1.5l0.4-0.2c0.4,0.5,0.8,1,1.1,1.4L366.4,322.2z
		 M367.9,322.7h1.8l0.2-0.9h-2.5v-0.4h1.9c-0.3-0.3-0.5-0.6-0.8-0.9l0.4-0.3c0.2,0.2,0.4,0.5,0.8,0.8l0.1,0.1l-0.4,0.3h1.5l0.8-1.2
		l0.4,0.2l-0.8,0.9h2v0.4h-3l-0.3,0.9h2.6v4.4h-4.9v-4.3H367.9z M368.4,323.1v0.9h3.9v-0.9H368.4z M368.4,324.4v0.9h3.9v-0.9H368.4z
		 M368.4,325.8v0.9h3.9v-0.9H368.4z"/>
	<path d="M353,331.1h0.5c0,0.3,0,0.9,0,1.6h2c0,2-0.1,3.7-0.1,5.3c0,0.9-0.4,1.3-1.2,1.3c-0.1,0-0.3,0-0.4,0c-0.1,0-0.1,0-0.2,0
		c-0.1,0-0.2,0-0.3,0c0-0.1,0-0.3-0.1-0.5c0.3,0,0.6,0,0.9,0c0.5,0,0.8-0.2,0.8-0.8c0.1-1.5,0.1-3.1,0.1-4.8h-1.5c0,0.2,0,0.4,0,0.5
		c0,2.7-0.5,4.6-1.6,5.9c-0.1-0.1-0.3-0.2-0.4-0.3c1-1.2,1.5-3.1,1.5-5.6c0,0,0-0.1,0-0.2c0-0.1,0-0.2,0-0.2h-1.2v-0.5h1.3
		c0-0.2,0-0.4,0-0.7c0-0.1,0-0.3,0-0.4C353,331.5,353,331.3,353,331.1z M356.6,332.2h3.1v7.1h-0.5v-0.9h-2.1v0.9h-0.5V332.2z
		 M357,332.7v5.3h2.1v-5.3H357z"/>
	<path d="M360.8,336.6c-0.1-0.2-0.1-0.3-0.2-0.4c0.8-0.2,1.6-0.5,2.4-0.8v-0.2v-1.8h0.4v1.7v0.1c1.3-0.6,2.6-1.3,3.7-2.1l0.3,0.4
		c-1.2,0.8-2.6,1.6-4,2.2c0.1,0.2,0.3,0.3,0.8,0.3h1.7c0.4,0,0.7-0.2,0.7-0.5c0-0.2,0.1-0.4,0.1-0.7c0.1,0.1,0.3,0.1,0.5,0.2
		c0,0.3-0.1,0.5-0.2,0.8c-0.1,0.5-0.5,0.7-1.1,0.7H364c-0.6,0-0.9-0.2-1-0.6C362.4,336.1,361.6,336.4,360.8,336.6z M364.3,331.2
		l0.5-0.1c0.1,0.2,0.2,0.5,0.3,0.9h3.6v1.4h-0.4v-1h-7v0.9h-0.5v-1.4h3.8C364.5,331.7,364.4,331.4,364.3,331.2z M361.8,333.6
		l0.4,0.2c-0.3,0.6-0.6,1.1-0.8,1.6c-0.1-0.1-0.2-0.1-0.4-0.2C361.3,334.6,361.6,334.1,361.8,333.6z M364.5,336.7h0.5v2h2.5V337h0.5
		v2.5h-0.5v-0.4h-5.9V337h0.5v1.7h2.5v-2H364.5z M364,333l0.3-0.3c0.3,0.3,0.7,0.6,1,0.9l-0.3,0.3C364.7,333.6,364.4,333.3,364,333z
		 M367.5,334.1l0.4-0.2c0.3,0.4,0.7,0.8,1.1,1.3l-0.4,0.3C368.2,335,367.8,334.5,367.5,334.1z"/>
</g>
<circle class="st6" cx="103.3" cy="361.8" r="23"/>
<g>
	<path d="M94.8,353.2h8.1v0.5h-3.2c-1.2,1.9-2.8,3.5-4.8,4.8c-0.1-0.1-0.2-0.3-0.4-0.4c2-1.3,3.6-2.8,4.5-4.4h-4.3L94.8,353.2
		L94.8,353.2z M98.5,355.4H99v5.6h-0.5V355.4z M102.6,358.3c-1.1-0.7-2-1.4-3-2l0.3-0.4c0.9,0.6,1.9,1.2,3,1.9L102.6,358.3z"/>
	<path d="M103.5,353.2h8.5v0.5h-1.5v6c0,0.7-0.4,1.1-1.1,1.1c-0.2,0-0.3,0-0.5,0c-0.1,0-0.2,0-0.3,0s-0.3,0-0.5,0
		c0-0.2,0-0.3-0.1-0.5c0.2,0,0.4,0,0.6,0c0.1,0,0.2,0,0.3,0s0.2,0,0.4,0c0.3,0,0.5-0.1,0.6-0.2c0.1-0.1,0.2-0.3,0.2-0.6v-5.9h-6.5
		L103.5,353.2L103.5,353.2z M104.5,355.1h3.7v3.5H105v0.7h-0.5V355.1z M105,355.6v2.6h2.7v-2.6H105z"/>
	<path d="M94.7,364.1h2.8v0.4h-1.2c-0.2,0.7-0.4,1.4-0.6,2.1h1.6v3.6h-1.5v0.7h-0.4v-3.4c-0.2,0.3-0.4,0.7-0.6,1.1
		c-0.1-0.1-0.2-0.2-0.3-0.4c0.7-1.1,1.2-2.4,1.4-3.7h-1.1L94.7,364.1L94.7,364.1z M95.8,367v2.8h1V367H95.8z M98.1,364.5h2.3v-1.2
		h0.5v1.2h2.1l-0.2,1.5c-0.2,0-0.3,0-0.5,0l0.2-1h-1.6v1.9h1.7v0.4c-0.4,1.1-0.9,2-1.5,2.7c0.5,0.4,1.1,0.9,2,1.3
		c-0.1,0.2-0.2,0.3-0.3,0.4c-0.8-0.5-1.5-0.9-2-1.4c-0.6,0.5-1.3,1-2.4,1.5c-0.1-0.1-0.2-0.3-0.3-0.4c1-0.4,1.8-0.9,2.4-1.4
		c-0.6-0.7-1.1-1.6-1.4-2.7h-0.5v0.1c0,0.1,0,0.2,0,0.3c0,1.7-0.4,3-1.2,4.1c-0.1-0.1-0.3-0.2-0.4-0.3c0.5-0.6,0.8-1.2,0.9-1.7
		c0.2-0.6,0.3-1.4,0.3-2.4v-2.9H98.1z M98.6,364.9v1.9h1.8v-1.9H98.6z M102.1,367.2h-2.5c0.2,0.9,0.7,1.7,1.2,2.3
		C101.4,368.9,101.8,368.2,102.1,367.2z"/>
	<path d="M103.8,366c-0.1-0.1-0.2-0.2-0.3-0.3c0.8-0.7,1.3-1.5,1.7-2.4l0.4,0.2c-0.2,0.3-0.3,0.6-0.5,0.8h1.7v0.4l-0.7,1h1.1v5.1
		c0,0.6-0.3,0.9-0.9,0.9c-0.2,0-0.4,0-0.6,0c0-0.1,0-0.3-0.1-0.4c0.1,0,0.1,0,0.2,0c0,0,0.1,0,0.2,0c0,0,0.1,0,0.2,0
		c0.2,0,0.4,0,0.4-0.1c0.1-0.1,0.1-0.2,0.1-0.4v-1.3h-1v1.4h-0.4v-1.4h-1c0,0.9-0.2,1.8-0.7,2.4c-0.1-0.1-0.3-0.2-0.4-0.3
		c0.3-0.4,0.4-0.8,0.5-1.1c0.1-0.4,0.1-0.9,0.1-1.6V366C104,365.8,103.9,365.9,103.8,366z M105,364.6c-0.3,0.4-0.5,0.7-0.8,1h1.5
		l0.8-1H105z M104.6,366v1.2h1V366H104.6z M104.6,368.7v0.2h1v-1.2h-1V368.7z M106.9,366h-1v1.2h1V366z M105.9,367.6v1.2h1v-1.2
		H105.9z M107.6,366.3c0.6-0.3,0.9-0.6,1.1-0.8c0.2-0.3,0.3-0.7,0.3-1.2h-1v-0.4h3.6c0,0.4,0,0.9-0.1,1.5c0,0.7-0.4,1-1.1,1
		c-0.2,0-0.5,0-0.8,0c0-0.2-0.1-0.3-0.1-0.5c0.1,0,0.2,0,0.4,0c0.1,0,0.1,0,0.2,0c0.1,0,0.2,0,0.3,0c0.4,0,0.6-0.2,0.7-0.6
		c0-0.4,0-0.7,0.1-1h-1.7c0,0,0,0.1,0,0.2c0,1-0.5,1.7-1.6,2.2C107.8,366.6,107.7,366.5,107.6,366.3z M109.8,366.7h0.5v1h1.6v0.4
		h-1.6v1.4h1.8v0.4h-1.8v1.8h-0.5v-1.8h-2.2v-0.4h2.2v-1.4h-1.3c-0.1,0.3-0.3,0.6-0.4,0.9c-0.2-0.1-0.3-0.2-0.4-0.2
		c0.3-0.6,0.6-1.2,0.9-2l0.4,0.1c-0.1,0.3-0.2,0.6-0.3,0.8h1.1V366.7z"/>
</g>
<circle class="st6" cx="151.7" cy="384.8" r="23"/>
<g>
	<path d="M143.2,376.2h8.1v0.5h-3.2c-1.2,1.9-2.8,3.5-4.8,4.8c-0.1-0.1-0.2-0.3-0.4-0.4c2-1.3,3.6-2.8,4.5-4.4h-4.3L143.2,376.2
		L143.2,376.2z M146.9,378.4h0.5v5.6h-0.5V378.4z M151,381.3c-1.1-0.7-2-1.4-3-2l0.3-0.4c0.9,0.6,1.9,1.2,3,1.9L151,381.3z"/>
	<path d="M151.9,376.2h8.5v0.5h-1.5v6c0,0.7-0.4,1.1-1.1,1.1c-0.2,0-0.3,0-0.5,0c-0.1,0-0.2,0-0.3,0s-0.3,0-0.5,0
		c0-0.2,0-0.3-0.1-0.5c0.2,0,0.4,0,0.6,0c0.1,0,0.2,0,0.3,0s0.2,0,0.4,0c0.3,0,0.5-0.1,0.6-0.2c0.1-0.1,0.2-0.3,0.2-0.6v-5.9H152
		L151.9,376.2L151.9,376.2z M152.9,378.1h3.7v3.5h-3.2v0.7h-0.5V378.1z M153.4,378.6v2.6h2.7v-2.6H153.4z"/>
	<path d="M143.2,392h2.5c0.2-0.2,0.4-0.4,0.6-0.6h-2.1v-3.2h6v3.2h-3.4c-0.1,0.2-0.3,0.4-0.5,0.6h4.9v0.4h-2.4
		c0.6,0.5,1.5,0.9,2.6,1c-0.1,0.1-0.2,0.2-0.2,0.4c-1.3-0.3-2.3-0.7-2.9-1.4h-2.4c-0.7,0.6-1.6,1.1-2.7,1.6
		c-0.1-0.1-0.1-0.2-0.2-0.4c1-0.4,1.8-0.8,2.3-1.2h-2.1L143.2,392L143.2,392z M144.6,386.2l0.5,0.1c-0.1,0.2-0.3,0.4-0.4,0.6h2.5
		v0.4h-1.6c0.1,0.1,0.2,0.3,0.3,0.5c0,0,0,0.1,0.1,0.1l-0.4,0.2c0,0-0.1-0.1-0.1-0.2c-0.1-0.2-0.2-0.4-0.3-0.5l0.3-0.1h-1.1
		c-0.3,0.4-0.7,0.7-1.1,1c0,0,0,0-0.1-0.1c-0.1-0.1-0.2-0.2-0.3-0.2C143.7,387.5,144.2,386.9,144.6,386.2z M144.6,388.5v0.6h5.1
		v-0.6H144.6z M144.6,389.5v0.6h5.1v-0.6H144.6z M144.6,390.4v0.6h5.1v-0.6H144.6z M145.6,394c1.1,0,2.1,0,2.9-0.1
		c-0.3-0.2-0.5-0.4-0.7-0.5l0.3-0.3c0.7,0.5,1.3,0.9,1.7,1.2l-0.3,0.3c0,0-0.1-0.1-0.2-0.2c-0.1-0.1-0.2-0.2-0.3-0.2
		c-1.9,0-3.2,0.1-4,0.1l-0.2-0.4c0.2-0.1,0.4-0.2,0.7-0.4c0.4-0.3,0.8-0.7,1.1-1l0.4,0.2C146.6,393.3,146.1,393.7,145.6,394z
		 M148.4,386.2l0.5,0.1c-0.2,0.3-0.3,0.5-0.4,0.6h2.8v0.4h-2c0.1,0.1,0.2,0.3,0.3,0.5v0.1l-0.4,0.2c0,0-0.1-0.1-0.1-0.2
		c-0.1-0.2-0.2-0.4-0.3-0.5l0.2-0.1h-1c-0.2,0.3-0.5,0.6-0.8,0.8c-0.1-0.1-0.2-0.2-0.4-0.3C147.6,387.4,148,386.9,148.4,386.2z"/>
	<path d="M152.2,387h2.8v3.4h-2.2v3c0.7-0.4,1.5-0.8,2.2-1.2c0,0.1,0,0.3,0.1,0.5c-0.9,0.4-1.6,0.9-2.3,1.2
		c-0.2,0.1-0.3,0.2-0.4,0.3l-0.4-0.5c0.2-0.2,0.3-0.5,0.3-0.8v-3.1h2.2v-2.4h-2.4L152.2,387L152.2,387z M155.5,390.4
		c-0.1-0.1-0.2-0.2-0.3-0.4c0.8-1.1,1.3-2.3,1.7-3.7l0.5,0.1c-0.1,0.5-0.3,1-0.5,1.5h3.5v0.4h-0.9c-0.2,1.9-0.7,3.3-1.5,4.2
		c0.5,0.6,1.3,1.1,2.4,1.7c-0.1,0.2-0.2,0.3-0.3,0.5c-1.1-0.6-1.9-1.1-2.5-1.8c-0.6,0.6-1.5,1.3-2.8,1.8c-0.1-0.1-0.2-0.3-0.3-0.4
		c1.3-0.6,2.2-1.2,2.8-1.8c-0.6-0.7-0.9-1.8-1.2-3.2C155.9,389.7,155.7,390,155.5,390.4z M156.6,388.3c-0.1,0.2-0.2,0.3-0.2,0.4
		c0.2,1.5,0.6,2.7,1.2,3.4c0.7-0.8,1.1-2.1,1.3-3.8H156.6z"/>
</g>
<circle class="st6" cx="323.7" cy="361.8" r="23"/>
<g>
	<path d="M315.2,353.2h8.1v0.5h-3.2c-1.2,1.9-2.8,3.5-4.8,4.8c-0.1-0.1-0.2-0.3-0.4-0.4c2-1.3,3.6-2.8,4.5-4.4h-4.3L315.2,353.2
		L315.2,353.2z M318.9,355.4h0.5v5.6h-0.5V355.4z M323.1,358.3c-1.1-0.7-2-1.4-3-2l0.3-0.4c0.9,0.6,1.9,1.2,3,1.9L323.1,358.3z"/>
	<path d="M324.1,354.6v-0.4h2.6v0.5c-0.3,0.7-0.7,1.2-1.1,1.7v0.2c0.1,0.1,0.3,0.3,0.4,0.4c0.2-0.2,0.5-0.5,0.7-0.8l0.4,0.3
		c-0.2,0.3-0.5,0.6-0.8,0.8c0.2,0.2,0.4,0.4,0.7,0.7l-0.3,0.3c-0.3-0.4-0.7-0.8-1-1.1v3.7h-0.5v-4c-0.3,0.3-0.6,0.6-1,1
		c-0.1-0.2-0.1-0.3-0.2-0.5c1-0.8,1.8-1.8,2.3-2.9L324.1,354.6L324.1,354.6z M324.9,352.6l0.4-0.2c0.2,0.4,0.5,0.8,0.7,1.2l-0.4,0.2
		C325.3,353.4,325.1,353,324.9,352.6z M329.7,352.5h0.5v1.3h2.1l-0.2,1.5c-0.2,0-0.3,0-0.5,0l0.2-1.1h-1.6v1.8h1.7v0.4
		c-0.4,1.1-0.8,2-1.4,2.6c0.5,0.4,1.1,0.9,2,1.3c-0.1,0.1-0.2,0.3-0.3,0.4c-0.8-0.4-1.5-0.9-2.1-1.4c-0.5,0.5-1.3,1-2.3,1.5
		c-0.1-0.1-0.2-0.3-0.3-0.4c1-0.5,1.8-0.9,2.3-1.4c-0.6-0.6-1-1.5-1.3-2.6H328v0.1c0,0.1,0,0.2,0,0.3c0,1.7-0.4,3-1.2,4.1
		c-0.1-0.1-0.2-0.2-0.4-0.3c0.5-0.6,0.8-1.2,0.9-1.8c0.2-0.6,0.3-1.4,0.3-2.4v-2.7h2.2v-1.2H329.7z M328,354.2v1.8h1.8v-1.8H328z
		 M331.4,356.5H329c0.2,0.9,0.6,1.7,1.2,2.3C330.6,358.2,331.1,357.4,331.4,356.5z"/>
	<path d="M315.1,368.5h1.5c0-0.2,0-0.6,0-1h-1.3v-0.4h1.3v-0.9h0.4v0.9h1.3v0.4H317c0,0.5,0,0.8,0,1h1.4v0.4h-1.5
		c0,0.3-0.1,0.6-0.2,0.9l0.3-0.3c0.5,0.4,1,0.8,1.3,1.1l-0.3,0.3c-0.5-0.5-0.9-0.8-1.3-1.1c-0.2,0.6-0.7,1.3-1.5,1.9
		c-0.1-0.1-0.2-0.3-0.3-0.4c1-0.6,1.5-1.4,1.6-2.4H315L315.1,368.5L315.1,368.5z M318.9,363.3l0.5-0.1c0.1,0.3,0.2,0.6,0.2,1h3.6
		v1.5h-0.4v-1.2h-7v1.3h-0.5v-1.7h3.8C319,363.9,319,363.6,318.9,363.3z M318.4,365l0.2,0.4c-0.7,0.2-1.4,0.5-2.4,0.7
		c-0.1-0.1-0.1-0.3-0.2-0.4C316.9,365.5,317.7,365.3,318.4,365z M317.9,371.4c1.1-0.4,1.8-0.9,2.2-1.4c0.4-0.5,0.5-1.3,0.5-2.5h0.4
		c0,1.3-0.2,2.2-0.6,2.7c-0.4,0.6-1.1,1.1-2.3,1.5C318.1,371.7,318,371.6,317.9,371.4z M319,366.5h3.8v3h-0.5v-2.6h-3v2.6h-0.4
		L319,366.5L319,366.5z M322.1,366.1c-0.7-0.2-1.5-0.5-2.3-0.7l0.2-0.4c0.6,0.2,1.4,0.4,2.3,0.7L322.1,366.1z M321,368.9h0.4v1.6
		c0,0.2,0,0.4,0.1,0.5c0.1,0.1,0.2,0.1,0.4,0.1h0.4c0.3,0,0.5-0.2,0.6-0.5c0.1-0.3,0.1-0.6,0.1-0.8c0.2,0.1,0.3,0.1,0.4,0.1
		c0,0.3-0.1,0.5-0.1,0.9c-0.1,0.5-0.4,0.8-0.9,0.8h-0.6c-0.6,0-0.9-0.3-0.9-1L321,368.9L321,368.9z"/>
	<path d="M324,368.5l-0.1-0.5c0.3-0.1,0.7-0.2,1.2-0.4v-2.1H324v-0.4h1.1v-1.8h0.5v1.8h0.9v0.4h-0.9v1.9c0.3-0.1,0.6-0.2,0.8-0.3
		c0,0.1,0,0.3,0,0.5c-0.2,0.1-0.5,0.2-0.9,0.3v2.8c0,0.6-0.3,0.9-0.8,0.9c-0.2,0-0.4,0-0.7,0c0-0.2,0-0.3-0.1-0.5c0.2,0,0.4,0,0.7,0
		c0.3,0,0.5-0.1,0.4-0.4v-2.6C324.8,368.2,324.4,368.4,324,368.5z M326.6,371.1c-0.1-0.1-0.2-0.3-0.3-0.4c1.1-0.6,2.1-1.5,2.8-2.6
		h-2.2v-0.4h2.5v-1.2h0.5v1.2h2.6v0.4h-2.4c0.6,1.1,1.5,2,2.6,2.5c-0.1,0.1-0.2,0.3-0.3,0.4c-1.1-0.7-1.9-1.6-2.5-2.7v3.5h-0.6v-3.5
		C328.7,369.4,327.8,370.3,326.6,371.1z M327,363.9h5.2v1.5h-0.5v-1h-4.3v1h-0.5L327,363.9L327,363.9z M328.6,365l0.4,0.3
		c-0.4,0.5-1,1.1-1.6,1.8c-0.1-0.1-0.2-0.2-0.4-0.4C327.6,366.2,328.2,365.6,328.6,365z M330,365.3l0.3-0.3c0.7,0.6,1.3,1.1,1.7,1.5
		l-0.4,0.4C331.1,366.3,330.6,365.8,330,365.3z"/>
</g>
<circle class="st6" cx="276.7" cy="384.8" r="23"/>
<g>
	<path d="M268.2,376.2h8.1v0.5h-3.2c-1.2,1.9-2.8,3.5-4.8,4.8c-0.1-0.1-0.2-0.3-0.4-0.4c2-1.3,3.6-2.8,4.5-4.4h-4.3L268.2,376.2
		L268.2,376.2z M271.9,378.4h0.5v5.6h-0.5V378.4z M276.1,381.3c-1.1-0.7-2-1.4-3-2l0.3-0.4c0.9,0.6,1.9,1.2,3,1.9L276.1,381.3z"/>
	<path d="M277.1,377.6v-0.4h2.6v0.5c-0.3,0.7-0.7,1.2-1.1,1.7v0.2c0.1,0.1,0.3,0.3,0.4,0.4c0.2-0.2,0.5-0.5,0.7-0.8l0.4,0.3
		c-0.2,0.3-0.5,0.6-0.8,0.8c0.2,0.2,0.4,0.4,0.7,0.7l-0.3,0.3c-0.3-0.4-0.7-0.8-1-1.1v3.7h-0.5v-4c-0.3,0.3-0.6,0.6-1,1
		c-0.1-0.2-0.1-0.3-0.2-0.5c1-0.8,1.8-1.8,2.3-2.9L277.1,377.6L277.1,377.6z M277.9,375.6l0.4-0.2c0.2,0.4,0.5,0.8,0.7,1.2l-0.4,0.2
		C278.3,376.4,278.1,376,277.9,375.6z M282.7,375.5h0.5v1.3h2.1l-0.2,1.5c-0.2,0-0.3,0-0.5,0l0.2-1.1h-1.6v1.8h1.7v0.4
		c-0.4,1.1-0.8,2-1.4,2.6c0.5,0.4,1.1,0.9,2,1.3c-0.1,0.1-0.2,0.3-0.3,0.4c-0.8-0.4-1.5-0.9-2.1-1.4c-0.5,0.5-1.3,1-2.3,1.5
		c-0.1-0.1-0.2-0.3-0.3-0.4c1-0.5,1.8-0.9,2.3-1.4c-0.6-0.6-1-1.5-1.3-2.6H281v0.1c0,0.1,0,0.2,0,0.3c0,1.7-0.4,3-1.2,4.1
		c-0.1-0.1-0.2-0.2-0.4-0.3c0.5-0.6,0.8-1.2,0.9-1.8c0.2-0.6,0.3-1.4,0.3-2.4v-2.7h2.2v-1.2H282.7z M281,377.2v1.8h1.8v-1.8H281z
		 M284.4,379.5H282c0.2,0.9,0.6,1.7,1.2,2.3C283.6,381.2,284.1,380.4,284.4,379.5z"/>
	<path d="M270.8,389.4l0.4-0.1c0.1,0.2,0.1,0.5,0.2,0.8c0,0,0,0,0,0.1h1.4v0.4h-1.5v0.9h1.5v0.4h-1.5v0.9h1.5v0.4h-1.5v0.9h1.7v0.4
		h-3.7v0.5h-0.4v-3.6c-0.2,0.2-0.4,0.5-0.7,0.8c-0.1-0.1-0.2-0.2-0.3-0.3c0.7-0.7,1.2-1.5,1.6-2.3l0.4,0.1c-0.1,0.2-0.2,0.5-0.4,0.7
		h1.5c0,0,0-0.1-0.1-0.2C270.9,389.7,270.9,389.5,270.8,389.4z M273.3,393.8c-0.1-0.1-0.2-0.2-0.3-0.3c0.4-0.3,0.8-0.7,1.1-1
		c-0.2-0.9-0.4-2.1-0.5-3.6h-5.5v-0.4h2.4v-0.9h-1.9v-0.4h1.9v-0.9h0.5v0.9h1.7v0.4H271v0.9h2.7c0-0.8-0.1-1.6-0.1-2.3h0.5
		c0,0.9,0,1.6,0.1,2.3h2.4v0.4h-2.4c0.1,1.2,0.2,2.2,0.4,3.1c0.4-0.5,0.8-1.2,1.2-2.2l0.4,0.2c-0.5,1.1-1,2-1.5,2.5
		c0.3,1,0.6,1.5,1,1.5c0.2,0,0.3-0.1,0.4-0.4c0.1-0.4,0.2-0.9,0.2-1.4c0.1,0.1,0.3,0.1,0.4,0.2c-0.1,0.6-0.1,1.1-0.2,1.4
		c-0.1,0.4-0.3,0.7-0.7,0.7c-0.6,0-1-0.5-1.4-1.6C274,393.2,273.7,393.5,273.3,393.8z M269.3,390.5v0.9h1.6v-0.9H269.3z
		 M269.3,391.7v0.9h1.6v-0.9H269.3z M269.3,393v0.9h1.6V393H269.3z M274.5,387l0.3-0.3c0.5,0.5,0.9,0.8,1.2,1.1l-0.3,0.3
		C275.3,387.8,274.9,387.4,274.5,387z"/>
	<path d="M277,393.3l-0.1-0.5c0.2,0,0.5-0.1,0.8-0.1v-5.6h-0.6v-0.4h3.9v0.4h-0.5v5.2c0.3,0,0.6-0.1,0.9-0.1c0,0.1,0,0.3,0,0.4
		c-0.2,0-0.5,0.1-0.9,0.1v2H280v-1.9C279,393,277.9,393.1,277,393.3z M278.2,387.1v1.5h1.9v-1.5H278.2z M278.2,389v1.5h1.9V389
		H278.2z M278.2,392.7c0.2,0,0.6-0.1,1-0.2c0.4-0.1,0.7-0.1,0.9-0.1V391h-1.9V392.7z M281.4,387.5v-0.4h3.7v0.5
		c-0.3,2-0.8,3.6-1.5,4.6c0.5,0.7,1.1,1.3,1.9,2c-0.1,0.1-0.2,0.3-0.4,0.4c-0.8-0.7-1.4-1.4-1.8-2c-0.5,0.7-1.2,1.4-2.1,2.1
		c-0.1-0.1-0.2-0.3-0.3-0.4c0.9-0.7,1.6-1.4,2.1-2.1c-0.7-1.1-1.1-2.6-1.4-4.7H281.4z M284.6,387.5h-2.4c0.2,1.8,0.6,3.2,1.2,4.2
		C283.9,390.7,284.3,389.3,284.6,387.5z"/>
</g>
<polygon class="st0" points="154.7,354.1 151.7,359.7 148.6,354.1 151.3,354.1 151.3,315.1 152,315.1 152,354.1 "/>
<polygon class="st0" points="279.8,354.1 276.7,359.7 273.7,354.1 276.3,354.1 276.3,315.1 277.1,315.1 277.1,354.1 "/>
<polygon class="st0" points="93.4,310.4 89.2,315.3 95.6,316.2 94.6,313.7 131.1,299.8 130.9,299 94.4,313 "/>
<polygon class="st0" points="332.3,310.4 336.4,315.3 330.1,316.2 331,313.7 294.5,299.8 294.8,299 331.3,313 "/>
<polygon class="st0" points="238.3,71.3 237.9,64.9 232.7,68.7 235.2,69.9 227.2,87.2 227.9,87.5 235.8,70.2 "/>
<polygon class="st0" points="185.6,70.9 186,64.5 191.2,68.3 188.7,69.4 196.7,86.7 196,87.1 188,69.7 "/>
<polygon class="st0" points="74.9,154.7 68.5,154 71.4,159.8 72.9,157.6 88.5,168.5 89,167.9 73.3,157 "/>
<polygon class="st0" points="62.9,207.3 56.6,206 61.1,201.5 61.9,204 83.1,196.5 83.4,197.2 62.1,204.8 "/>
<polygon class="st0" points="360.1,207.3 366.4,206 361.9,201.5 361.1,204 339.9,196.5 339.7,197.2 360.9,204.8 "/>
<polygon class="st0" points="345.5,154.7 351.9,154 349,159.8 347.5,157.6 331.9,168.5 331.4,167.9 347,157 "/>
<g>
	<path class="st5" d="M230.6,213.2l-17.7-26.6c-0.6-0.9-1.8-0.9-2.4,0l-17.7,26.6c-0.9,1.4,0.1,3.3,1.8,3.3c0.7,0,1.4-0.4,1.8-1
		l5.2-8.1h19.9l5.4,8.1c0.4,0.6,1.1,1,1.8,1h0C230.5,216.6,231.5,214.7,230.6,213.2z M204.6,203.2l7.1-10.6l7.1,10.6H204.6z"/>
	<path class="st5" d="M219.7,215.1l-4.3-0.4c-1.9-0.2-3.6,1.3-3.6,3.2v0c0,8,1.7,15.9,5,23.2l2.2,4.9c0.6,1.4-0.4,3-2,3
		c-0.8,0-1.6-0.5-2-1.3l-2.6-5.7c-3.3-7.3-5-15.2-5-23.2v-2.5c0-3.5,2.8-6.3,6.3-6.3h4.1c1.1,0,2.1,0.2,3,0.7
		c0.8,0.4,1.3,1.2,1.3,2.1C222.2,214.1,221,215.2,219.7,215.1z"/>
</g>
</svg>
